<svg version="1.1" xmlns="http://www.w3.org/2000/svg" xmlns:xlink="http://www.w3.org/1999/xlink" width="568.27917" height="679.48265" viewBox="0,0,568.27917,679.48265"><g transform="translate(43.26322,153.26018)"><g data-paper-data="{&quot;isPaintingLayer&quot;:true}" fill-rule="nonzero" stroke-linecap="butt" stroke-linejoin="miter" stroke-miterlimit="10" stroke-dasharray="" stroke-dashoffset="0" style="mix-blend-mode: normal"><path d="M-0.67605,360v-360h480.67606v360z" fill="#e0faff" stroke="#e0faff" stroke-width="2"/><path d="M51.09247,41.78224c-1.78224,-0.90754 -0.8747,-2.68978 -0.8747,-2.68978l1.1814,-2.27899c4.28066,-4.68581 8.26546,-9.57808 12.50402,-14.27266c-3.75859,2.14323 -7.48878,4.38138 -11.32701,6.13327c-4.86613,2.21764 -9.1974,5.30961 -13.98873,7.63951c-5.75657,2.79927 -11.04458,6.09036 -16.55916,9.40183c-3.19891,1.92092 -6.75735,3.54638 -9.79461,5.70776c-3.02443,2.15225 -5.55052,4.85275 -8.65144,6.94149c-2.15841,1.45388 -4.47165,2.69887 -6.48249,4.35086c-1.099,0.90288 -1.85702,2.20866 -3.04827,2.98578c-0.96955,0.63249 -2.16411,1.45688 -3.27887,1.14847l-1.84217,0.92109c-0.27792,0.14633 -0.5945,0.22914 -0.93041,0.22914c-1.10457,0 -2,-0.89543 -2,-2c0,-0.79841 0.46784,-1.48754 1.14433,-1.80823l1.74145,-0.87073c2.06338,-2.11933 3.64528,-4.66099 5.71546,-6.75054c1.70914,-1.72513 3.84862,-2.96262 5.77742,-4.43808c8.439,-6.44846 15.57552,-14.35165 23.28052,-21.61533c0.3287,-0.30988 0.65907,-0.61795 0.99091,-0.92444c-1.50581,1.29614 -2.89565,2.73744 -4.4348,3.99578c-1.65265,1.35114 -3.77427,2.01071 -5.5488,3.19725c-4.33778,2.90049 -8.26655,6.66359 -12.46648,9.81432c0,0 -1.6,1.2 -2.8,-0.4c-1.2,-1.6 0.4,-2.8 0.4,-2.8c4.26164,-3.19546 8.24172,-6.98092 12.63886,-9.93662c1.70292,-1.14467 3.76894,-1.73899 5.34587,-3.05181c5.12541,-4.26699 10.67573,-7.80315 15.9041,-11.92983c0.82305,-0.64963 1.36517,-1.64324 2.26291,-2.185c1.75131,-1.05687 4.13413,-1.14303 5.54892,-2.62034c0.54306,-0.56705 0.52282,-1.54265 1.08514,-2.09061c2.14163,-2.08692 4.38401,-1.79196 5.79173,-4.7552c1.01273,-1.02948 2.03129,-2.05327 3.05559,-3.07127c0.28408,-0.61607 0.62825,-1.13397 1.24329,-1.25867c0.01199,-0.00243 0.02391,-0.00462 0.03576,-0.00658c0.03946,-0.03885 0.07894,-0.07771 0.11842,-0.11655l0.31323,-0.0899l-0.03824,-0.07647l1.96401,-0.98201c0.27793,-0.14633 0.5945,-0.22914 0.93042,-0.22914c1.10457,0 2,0.89543 2,2c0,0.7984 -0.46784,1.48754 -1.14433,1.80823l-1.74173,0.87087c-0.28286,0.28856 -0.56644,0.57641 -0.85074,0.86357c-4.66631,7.47739 -12.41448,13.19266 -18.94033,18.95733c-7.20228,6.36221 -13.92254,13.35404 -20.97838,19.92914c1.88558,-1.0523 3.81043,-2.05355 5.62724,-3.14456c5.61494,-3.3718 11.00022,-6.72456 16.86865,-9.56929c4.8201,-2.33656 9.18224,-5.44364 14.0749,-7.68008c7.28668,-3.32587 14.12315,-8.22764 21.52413,-11.20699c1.08791,-0.92419 2.1821,-1.66741 2.98102,-1.7424c0.19552,-0.01835 0.38856,-0.01638 0.57957,0.0022v-0.08801h2c1.10457,0 2,0.89543 2,2c0,0.89968 -0.59404,1.66061 -1.41129,1.91195l-2.95088,0.98363c-0.29176,0.09913 -0.58261,0.20199 -0.8726,0.30836c-0.17798,0.10181 -0.34723,0.21272 -0.49725,0.34275c-0.95789,0.83028 -1.78695,1.79847 -2.68219,2.69596c-5.99165,6.00661 -11.14247,12.65237 -16.9025,18.85437l-0.90104,1.81053c0,0 -0.90754,1.78224 -2.68978,0.8747z" fill="#e0faff" stroke="none" stroke-width="0.5"/><path d="M57,41c0,-1.10457 0.89543,-2 2,-2c1.10457,0 2,0.89543 2,2c0,1.10457 -0.89543,2 -2,2c-1.10457,0 -2,-0.89543 -2,-2z" fill="#d9f9ff" stroke="none" stroke-width="0.5"/><path d="M269.2385,349.84936c-1.84936,-0.7615 -1.08785,-2.61086 -1.08785,-2.61086l0.908,-2.20515c2.05023,-4.97912 4.09882,-9.9589 6.15617,-14.93508c1.16461,-1.93104 2.32441,-3.8681 3.48145,-5.80932c-8.78062,11.62851 -17.61037,23.20605 -25.85635,35.22363c-5.18151,7.55146 -9.90731,16.09346 -16.21183,22.8337l0.37004,0.25391l-2.24656,3.27411c-0.35844,0.53806 -0.97066,0.89256 -1.66567,0.89256c-1.10457,0 -2,-0.89543 -2,-2c0,-0.25943 0.0494,-0.50733 0.1393,-0.7348l1.36683,-3.70998c6.92256,-18.78982 15.84424,-36.55172 24.49568,-54.60283c1.46756,-3.06205 2.89123,-6.16115 4.32107,-9.26109c-1.20502,1.846 -2.41005,3.69199 -3.61507,5.53798c-4.32658,6.62795 -8.1844,13.99668 -13.52883,19.84711l0.39923,0.26615l-1.98279,2.97419c-0.35611,0.5514 -0.97608,0.91641 -1.68131,0.91641c-1.04427,0 -1.90161,-0.80034 -1.99211,-1.82108c-8.79344,13.89411 -17.60772,27.77464 -26.43556,41.64695c-2.86334,4.49953 -5.72667,8.99905 -8.59001,13.49858c-0.00797,0.01254 -4.30601,6.76665 -4.30652,6.76718c-0.00504,0.00516 -0.01009,0.01032 -0.01514,0.01547l0.00344,0.0023l-1.98279,2.97419c-0.35611,0.5514 -0.97608,0.91641 -1.68131,0.91641c-1.10457,0 -2,-0.89543 -2,-2c0,-0.35179 0.09083,-0.68237 0.25032,-0.96957l1.4959,-2.8256c3.47914,-6.57171 6.83946,-13.14183 10.84642,-19.40725c13.26776,-20.74596 26.53554,-41.49192 39.8033,-62.23789c1.36827,-3.85952 2.77264,-7.70369 4.26077,-11.50887c5.82564,-14.89631 12.55104,-29.50433 18.81302,-44.22359c4.81095,-11.30848 10.14231,-22.39016 15.69524,-33.36955c-12.51752,13.28476 -25.03568,26.56807 -37.58514,39.82206c-13.93313,15.55868 -27.84629,31.13531 -41.77272,46.69993c-14.35273,15.70901 -28.78593,31.34997 -43.106,47.09083l-0.10975,0.1411c-0.09454,0.12398 -0.20324,0.23658 -0.32368,0.3354c-4.16363,4.57806 -8.31753,9.16472 -12.45695,13.7641c-0.0519,0.05766 -0.1038,0.11534 -0.1557,0.173c-9.68718,12.47442 -18.87799,25.41856 -28.39554,37.97363c-10.38773,13.70297 -20.65243,27.49597 -30.92624,41.28451c-4.76072,6.38939 -9.1107,13.32739 -14.69873,18.97756l0.35918,0.26763l-2.37574,3.18849c-0.36362,0.49945 -0.95287,0.82407 -1.61795,0.82407c-1.10457,0 -2,-0.89543 -2,-2c0,-0.23753 0.0414,-0.46538 0.1174,-0.67674l0.98524,-2.95571l0.02719,0.00907l0.0009,-0.08782c0.78352,-1.82837 1.57958,-3.65058 2.38678,-5.46734c-3.7167,5.10978 -7.42624,10.22478 -11.11797,15.35217c-4.02542,5.95689 -8.05082,11.91377 -12.07624,17.87066c-2.23962,3.31423 -4.47924,6.62846 -6.71885,9.94269c-0.11022,0.1631 -4.57269,6.77397 -4.61635,6.8085c-0.05942,0.04698 -0.1194,0.09308 -0.17992,0.13835l0.02334,0.02504l-2.92271,2.72333c-0.35762,0.33509 -0.83845,0.54028 -1.3672,0.54028c-1.10457,0 -2,-0.89543 -2,-2c0,-0.43399 0.13823,-0.83569 0.37307,-1.16349c2.28628,-3.28221 6.84468,-9.8263 9.13096,-13.10851c5.62007,-8.06823 11.3234,-16.07968 17.06989,-24.06118c6.41606,-9.49462 12.83212,-18.98923 19.24818,-28.48384c2.74752,-4.06584 5.49799,-8.12952 8.25126,-12.19117c3.96744,-7.9916 8.01157,-15.94838 12.00323,-23.93591c6.2652,-12.53705 12.45247,-25.1117 18.62964,-37.69195c-1.51465,0.96008 -3.1335,1.21102 -4.69542,-0.2064c-0.94118,-0.85411 -0.40253,-2.51702 -0.43953,-3.78744c-0.1121,-3.84846 0.28599,-4.53211 1.13948,-8.24716c2.04347,-8.89475 5.48933,-16.97224 9.36389,-25.23836c4.52033,-9.64177 8.59417,-19.69241 13.63275,-29.07134c3.78306,-7.04186 8.38644,-13.75947 12.54884,-20.58581c3.45005,-5.65809 6.76205,-11.45059 10.3075,-17.06917c-1.49448,1.44919 -2.98895,2.89839 -4.48343,4.34758c-7.35886,7.13586 -14.38205,14.66284 -22.68127,20.69411c-10.5717,7.68275 -21.1434,15.36548 -31.7151,23.04823c-5.2181,7.8385 -10.38104,15.71904 -15.47904,23.65855c-10.08579,15.70737 -20.17156,31.41473 -30.25735,47.1221c-2.88163,4.48778 -5.75392,8.98174 -8.64496,13.46346c-0.77027,1.19407 -1.21268,2.68452 -2.31786,3.57767c-0.06847,0.05533 -0.13783,0.10924 -0.20804,0.16185l0.02495,0.02753l-2.67559,2.42536c-0.3556,0.32485 -0.82893,0.523 -1.34853,0.523c-1.10457,0 -2,-0.89543 -2,-2c0,-0.36785 0.0993,-0.7125 0.27257,-1.00861l1.93683,-3.45862c3.9128,-6.98715 7.60071,-14.17152 11.76722,-21.00958c4.74105,-7.78099 10.20335,-15.20917 15.28083,-22.77624c7.03369,-10.48246 14.00248,-21.01455 21.03544,-31.50255c-2.46621,1.81331 -4.93793,3.61968 -7.4439,5.37236c-1.30687,0.91402 -2.40776,2.32365 -3.96167,2.68239c-1.55391,0.35874 -3.16131,-0.42567 -4.73659,-0.67432c-4.43121,-0.69946 -8.67444,-1.60534 -13.00718,-2.7757c-0.24585,-2.29656 -0.36045,-4.58916 -0.39189,-6.88124c-4.71771,7.14369 -9.38329,14.32322 -13.96997,21.5586c-1.0075,1.58931 -1.99531,3.18885 -2.96579,4.79746c-3.50288,6.36692 -6.97497,12.74967 -10.36301,19.17327c-2.2989,4.35864 -4.41278,8.82634 -6.61658,13.23391c-1.19257,2.38514 -1.96926,5.02844 -3.57771,7.15542l-1.76948,3.53896c-0.32069,0.67649 -1.00982,1.14432 -1.80823,1.14432c-1.10457,0 -2,-0.89543 -2,-2c0,-0.23753 0.04141,-0.46538 0.1174,-0.67674l0.98524,-2.95571l0.05181,0.01727l-0.00221,-0.15018c6.38668,-12.81582 12.73914,-25.61811 19.99866,-37.93473c5.30423,-9.65834 10.77931,-19.23548 16.05517,-28.87757c1.15864,-2.11752 2.32036,-4.2334 3.48478,-6.34784c-8.03139,11.2156 -15.80533,22.61605 -24.28909,33.52374c-1.06835,1.37359 -2.12863,2.75497 -3.19166,4.13434c-1.53297,2.42989 -3.04193,4.87421 -4.52007,7.33692l-0.03648,0.03285l0.01056,0.00705l-1.9828,2.97419c-0.35611,0.5514 -0.97608,0.91641 -1.6813,0.91641c-1.10457,0 -2,-0.89543 -2,-2v-2h0.07102c-0.01146,-0.21509 -0.00098,-0.43134 0.03723,-0.64907c0.26796,-1.52677 1.83252,-2.50081 2.76881,-3.73622c1.39092,-1.83526 2.80903,-3.65143 4.2306,-5.46467c8.19502,-12.96111 17.06652,-25.51686 25.57184,-38.27483c2.69057,-4.03586 5.37385,-8.07521 8.05499,-12.11509c0.08867,-3.31624 0.25657,-6.62275 0.71583,-9.82567c0.56532,-3.94264 1.91615,-7.97633 2.85127,-11.8504c0.1814,-0.75153 0.36516,-1.5002 0.55135,-2.24628c-1.94036,2.44526 -3.97807,4.79175 -6.17006,6.93953l0.33216,0.25307l-2.41075,3.16412c-0.36462,0.48892 -0.94748,0.80552 -1.60428,0.80552c-1.10457,0 -2,-0.89543 -2,-2c0,-0.22589 0.03745,-0.44303 0.10648,-0.64556l0.6082,-1.93017c0.82766,-2.61782 1.82033,-5.18901 2.96652,-7.68386c4.35751,-9.46058 8.96571,-18.77911 13.77691,-27.98645c-13.48464,16.83682 -26.89247,33.72191 -40.00118,50.86406c-9.50691,12.43212 -19.1328,24.76914 -28.22983,37.50498c-5.31747,7.44446 -10.19118,15.93801 -16.66125,22.50841l0.38658,0.27613l-2.30946,3.23324c-0.36125,0.5193 -0.96241,0.85922 -1.64296,0.85922c-1.10457,0 -2,-0.89543 -2,-2c0,-0.33591 0.08282,-0.65249 0.22914,-0.93041l0.982,-1.96401l0.00429,0.00214l0.00064,-0.01193c4.72424,-9.19532 10.11179,-17.96003 15.02325,-27.04447c2.4861,-4.5984 4.47326,-9.47614 7.02208,-14.03988c5.66359,-10.14081 12.66328,-19.74509 18.93648,-29.5239c0.71768,-1.11874 1.43655,-2.23662 2.15655,-3.35367c-2.5836,3.66426 -5.15193,7.33976 -7.69919,11.03109c-3.02913,4.38963 -6.05821,8.77928 -9.08738,13.16889c-0.23151,0.33547 -4.31298,6.28805 -4.61544,6.57371l-2.30946,3.23324c-0.36125,0.5193 -0.96241,0.85922 -1.64296,0.85922c-1.10457,0 -2,-0.89543 -2,-2c0,-0.41829 0.12841,-0.8066 0.34797,-1.12763l1.41408,-2.1346c2.41715,-6.0462 6.04377,-11.52541 9.32856,-17.14122c4.71264,-8.05691 9.44075,-16.10481 14.16112,-24.15719c5.27515,-8.99196 11.64193,-17.40793 17.55998,-25.98912c9.52031,-13.80444 18.94517,-27.67486 28.40266,-41.52239c15.21244,-22.27384 32.17461,-43.20891 48.85145,-64.40036c3.58773,-8.08029 7.24522,-16.13692 10.97647,-24.14587c-6.77312,8.2922 -13.45847,16.66319 -20.02604,25.16241c-16.91341,21.88795 -33.60134,43.90953 -49.92193,66.24297c-4.49226,6.14586 -8.59861,12.56449 -13.03029,18.75781l-1.28636,2.37256c-0.33253,0.64308 -1.00377,1.08265 -1.77768,1.08265c-1.10457,0 -2,-0.89543 -2,-2c0,-0.3518 0.09083,-0.68238 0.25032,-0.96957l1.85366,-3.50135c0.76371,-2.55497 2.4954,-4.71354 3.7431,-7.07031c3.01288,-5.691 6.17533,-11.2791 9.37011,-16.86996c1.18904,-2.08082 2.36359,-4.16602 3.52538,-6.25567c-0.51445,0.69256 -1.03001,1.38356 -1.54692,2.07277c-3.10531,4.14041 -6.21038,8.28052 -9.31322,12.42197c-7.95171,11.69204 -16.37649,23.21365 -23.64558,35.33137c-5.33242,8.88925 -10.12295,19.1216 -16.80702,27.23388l0.34316,0.20589l-2.03912,3.39854c-0.34546,0.59915 -0.99255,1.00244 -1.73384,1.00244c-1.10457,0 -2,-0.89543 -2,-2c0,-0.06512 0.00311,-0.12951 0.0092,-0.19304c-5.37371,7.42208 -11.00361,14.66409 -16.25013,22.17487c-6.91845,9.90426 -13.52707,19.92631 -20.73266,29.6361l-0.11115,0.06482l0.02866,0.02731l-2.75622,2.89311c-0.36444,0.38401 -0.87971,0.62347 -1.45092,0.62347c-1.10457,0 -2,-0.89543 -2,-2c0,-0.38311 0.10773,-0.74106 0.29453,-1.04521l2.01531,-3.41618c0.50735,-1.3539 3.55168,-5.69016 4.34677,-6.86178c2.99483,-4.4131 5.99076,-8.82545 8.98614,-13.23818c9.48904,-13.97904 19.59284,-27.52763 29.52987,-41.19106c1.71903,-2.36367 3.44159,-4.72458 5.16733,-7.08301c0.79807,-1.73426 1.55721,-3.48539 2.20883,-5.27882c3.74346,-10.30295 7.65013,-20.59456 11.98795,-30.69261c-1.39888,1.34535 -2.85017,2.62781 -4.37923,3.81765l0.34837,0.34837l-2.82843,2.82843c-0.36193,0.36193 -0.86193,0.58578 -1.41422,0.58578c-1.10457,0 -2,-0.89543 -2,-2c0,-0.33591 0.08282,-0.65249 0.22914,-0.93042l1.19315,-2.3863c5.11789,-10.228 11.40045,-19.99453 17.32363,-29.77626c1.17979,-1.94832 2.37231,-3.88723 3.5766,-5.81753c-0.20399,-0.31345 -0.32252,-0.68763 -0.32252,-1.08949c0,-0.40293 0.11915,-0.77803 0.32415,-1.09199l1.06884,-1.69615c0.47809,-0.75869 0.95988,-1.5152 1.44514,-2.26967c0.47356,-1.16752 1.24901,-2.19128 2.07899,-3.18907c2.55584,-3.86991 5.19579,-7.68985 7.88862,-11.47701c0.14319,-0.24595 0.28529,-0.4933 0.42627,-0.74222c8.9552,-15.81206 17.97706,-31.57584 27.13334,-47.27232c6.3807,-10.93833 12.57312,-21.94924 18.51331,-33.08779c-2.00432,2.39945 -4.01138,4.7959 -6.02393,7.18672c-18.02577,21.41389 -35.24568,43.44025 -52.58479,65.4124c-4.10229,5.19843 -8.17216,10.42198 -12.22493,15.65881c-0.74034,1.0463 -1.48205,2.09171 -2.22522,3.13617c-8.43586,11.85581 -17.55633,23.47448 -25.20044,35.85439c-5.41267,8.76601 -10.29807,19.11391 -17.21956,26.97614l0.40379,0.2494l-2.08346,3.37321c-0.3487,0.5862 -0.98853,0.97899 -1.72011,0.97899c-1.10457,0 -2,-0.89543 -2,-2c0,-0.33591 0.08282,-0.65249 0.22914,-0.93042l0.93413,-1.86826c2.38598,-7.19863 6.13608,-13.76282 9.84346,-20.36664c0.02606,-0.31851 0.12675,-0.6159 0.28457,-0.87464l1.38391,-2.36344c2.03003,-3.46469 3.62363,-7.11683 5.59661,-10.60328c1.08713,-1.92106 2.3202,-3.78771 3.59646,-5.63113c11.00398,-19.1143 22.86653,-37.6518 35.03892,-56.09482c15.3038,-23.18758 31.83887,-45.26354 48.5072,-67.48634c10.10547,-12.82802 20.28527,-25.60104 30.2675,-38.52523c3.9871,-5.16219 7.72899,-11.52693 12.42073,-16.04633c1.25509,-1.209 2.34547,-1.95181 3.47997,-2.512l0.76508,-0.54649c7.41964,-10.20768 15.00045,-20.27405 22.67499,-30.2979c-5.4945,5.24472 -10.98492,10.49398 -16.47384,15.74538c-8.63711,8.26337 -16.40155,17.36013 -24.38885,26.25c-10.69338,11.90175 -21.38676,23.8035 -32.08014,35.70525c-18.69956,20.81264 -36.62221,42.3193 -54.77299,63.61157c-10.87977,12.76281 -20.74147,26.30561 -30.84307,39.69024c-3.21283,4.25701 -6.42568,8.51401 -9.63851,12.77102c-1.60642,2.1285 -2.83658,4.60223 -4.81926,6.38551l-2.39587,3.17454c-0.36422,0.49339 -0.94981,0.8134 -1.61013,0.8134c-1.10457,0 -2,-0.89543 -2,-2c0,-0.42026 0.12962,-0.81025 0.35107,-1.13216l1.98483,-2.97724l0.01741,0.0116l0.01578,-0.05983c0.25733,-0.34113 0.51469,-0.68218 0.77207,-1.02318c0.61342,-1.24908 1.57006,-2.31508 2.54612,-3.3707c9.16157,-12.12132 18.33043,-24.19338 27.24424,-36.51661c4.20808,-6.78081 8.18236,-13.79968 12.66857,-20.39869c11.23181,-16.52147 23.94621,-32.0869 35.41066,-48.46468c6.12163,-8.74519 12.07208,-17.64456 18.37994,-26.25597c10.04462,-13.71277 21.0109,-26.77438 31.27626,-40.32492c7.2459,-9.56458 14.16568,-19.5263 21.80495,-28.7779c0.20194,-0.24456 0.40534,-0.48818 0.61013,-0.73095c-15.26461,14.70399 -30.10584,29.83403 -44.55793,45.34873c-18.65148,20.02284 -38.09918,39.35676 -56.49179,59.61181c-11.64578,12.82318 -23.39407,25.56111 -34.85576,38.54916c-3.52892,3.99887 -7.05267,8.00238 -10.5868,11.99665c-2.06733,2.3365 -3.32405,4.16525 -6.157,5.67044l-3.18994,2.37912c-0.33633,0.25665 -0.75645,0.40909 -1.21218,0.40909c-1.10457,0 -2,-0.89543 -2,-2c0,-0.3595 0.09485,-0.69684 0.26089,-0.98837l1.89364,-3.4811l0.01011,0.0055l0.01045,-0.04236c10.52208,-17.53563 22.1229,-34.11919 34.18721,-50.62789c14.28975,-19.03164 28.6283,-37.9724 43.33625,-56.66606c-7.65277,7.66967 -15.34428,15.29965 -23.23699,22.72196c-5.59809,5.26444 -11.39602,12.38533 -18.46496,15.70213l-3.26808,2.26252c-0.32699,0.23293 -0.72705,0.36993 -1.15911,0.36993c-1.10457,0 -2,-0.89543 -2,-2c0,-0.45753 0.15363,-0.87917 0.41212,-1.21616l2.38788,-3.18384l0.01858,0.01394l0.02959,-0.07561c2.00179,-2.27651 3.96327,-4.5524 5.88727,-6.84742c0.06901,-0.10336 0.14739,-0.19994 0.23394,-0.28852l0.05374,-0.05512c1.56574,-1.87288 3.10665,-3.75913 4.62428,-5.66944c-6.28755,4.72512 -12.59346,9.42325 -19.13799,13.78627l-2.97725,1.98483c-0.32191,0.22145 -0.7119,0.35107 -1.13215,0.35107c-1.10457,0 -2,-0.89543 -2,-2c0,-0.6385 0.2992,-1.2071 0.76504,-1.57328l3.10905,-2.48724c1.51847,-1.91251 3.45977,-3.58252 5.47011,-5.21726c-0.0007,-0.0217 -0.00105,-0.0435 -0.00105,-0.06536c0,-0.48779 0.17464,-0.9348 0.46479,-1.28192l2.53338,-3.0774c0.21629,-0.40712 1.51243,-1.89868 2.71313,-3.24479c-1.21963,0.60107 -2.43335,1.19203 -3.58436,1.8118c-2.75105,1.43371 -6.42712,4.25888 -9.8843,1.54967c-1.20502,-0.94432 -0.55476,-3.02526 -0.58075,-4.55599c-0.04999,-2.94454 0.9871,-5.87851 0.99497,-8.85822c0.01755,-6.6384 2.67855,-12.45271 4.36862,-18.82037c0.84931,-3.19995 1.28538,-6.61489 2.14355,-9.84306c-0.31842,-0.35422 -0.51216,-0.82277 -0.51216,-1.33657c0,-0.55228 0.22386,-1.05229 0.58578,-1.41422l1.59374,-1.59373c-0.05913,0.00526 -0.11902,0.00795 -0.17952,0.00795c-1.10457,0 -2,-0.89543 -2,-2c0,-0.55228 0.22386,-1.05229 0.58578,-1.41422l1.67144,-1.67143c0.18365,-0.18505 0.36814,-0.37485 0.55353,-0.56867c1.70162,-3.39653 3.70762,-6.34763 6.58287,-9.46973l0.01741,-0.00874l-0.00479,-0.00458l2.1462,-2.24269c0.36424,-0.38194 0.87811,-0.61993 1.44757,-0.61993c1.02694,0 1.8731,0.77399 1.98697,1.77045l3.08262,-1.5413c0.27792,-0.14633 0.5945,-0.22914 0.93042,-0.22914c1.10457,0 2,0.89543 2,2c0,0.27966 -0.0574,0.54591 -0.16106,0.78762l-0.78271,1.94819l1.01336,-0.50667c0.27792,-0.14633 0.5945,-0.22914 0.93042,-0.22914c0.73739,0 1.38158,0.39907 1.72837,0.99302c0.50113,-0.39127 1.03244,-0.71988 1.63917,-0.89038c1.31288,-0.36894 3.12231,-0.49193 4.06085,0.49747c0.84962,0.89568 1.09244,1.78247 0.97697,2.62986c1.43211,-1.25391 2.77933,-2.42703 2.83484,-2.44913c0.10494,-0.04177 0.21057,-0.08099 0.31686,-0.11784l-0.01375,-0.03437l3.67179,-1.46872c0.24098,-0.10292 0.50628,-0.15989 0.78489,-0.15989c0.88291,0 1.63218,0.5721 1.89736,1.36582c2.41465,-2.14319 4.97548,-4.10106 7.77321,-5.77049l-0.28252,-0.37749l3.18615,-2.38457c0.33674,-0.25779 0.75781,-0.41097 1.21466,-0.41097c1.10457,0 2,0.89543 2,2c0,0.33592 -0.08282,0.65249 -0.22914,0.93042l-1.77086,3.54172l-0.09231,-0.04616l-0.07406,0.32115c-3.52876,3.58292 -6.95813,7.2289 -10.33234,10.91367c4.3526,-3.57524 8.88065,-7.2546 13.83115,-9.87972c0.75919,-0.40258 1.58975,-0.66311 2.45151,-0.83583l3.75045,-1.25015c0.21136,-0.07599 0.43922,-0.1174 0.67674,-0.1174c1.10457,0 2,0.89543 2,2c0,0.5131 -0.19322,0.98108 -0.51087,1.33513l-1.55283,1.74694c-1.33505,1.78072 -2.69272,3.54653 -4.12251,5.2521c-0.03404,0.04045 -0.06815,0.08085 -0.10233,0.12116l0.15638,-0.10426c0.32191,-0.22145 0.71189,-0.35107 1.13215,-0.35107c0.97816,0 1.79232,0.70221 1.96585,1.63003c1.65976,-1.30481 3.33111,-2.59356 5.01683,-3.86228c2.74543,-2.06132 5.72973,-3.74299 8.61837,-5.59868l2.13256,-1.71713c0.34487,-0.28246 0.78584,-0.45194 1.26638,-0.45194c0.8111,0 1.50943,0.48283 1.82325,1.17675c0.69392,0.31382 1.17675,1.01215 1.17675,1.82325c0,0.47844 -0.168,0.91764 -0.44822,1.26183l-2.48883,3.11104c-0.99253,1.84155 -3.42313,3.52772 -4.85547,4.72432c-2.13571,1.78419 -4.39629,3.44699 -6.62465,5.1427c-2.42211,2.38196 -4.94572,4.65895 -7.49912,6.90537c0.62501,-0.08553 1.26346,-0.13515 1.91629,-0.14524c0,0 0.93788,0 1.52913,0.64225c6.7493,-6.75335 13.4733,-13.54658 20.06793,-20.45872c2.63344,-2.88434 5.3021,-5.73125 8.00659,-8.53216c0.30831,-0.33455 0.61622,-0.66943 0.92373,-1.00467c5.99581,-6.53637 11.2972,-14.23241 18.39003,-19.58254l1.74745,-1.55329c0.35405,-0.31765 0.82203,-0.51087 1.33513,-0.51087c1.10457,0 2,0.89543 2,2c0,0.4918 -0.17751,0.94215 -0.47196,1.29046l-2.55233,3.0628c-0.84696,1.51401 -4.22809,4.72696 -5.38992,5.88939c-3.71318,3.71507 -7.55752,7.34113 -11.21704,11.11899c-0.29716,0.3335 -0.59575,0.66422 -0.89614,0.99167c-2.35198,2.56395 -4.7273,5.10746 -7.12096,7.63431c-8.71662,9.56605 -17.19482,19.39859 -25.24555,29.4956c-17.23515,21.61586 -33.89935,43.60053 -50.499,65.70728c-10.60311,14.50984 -20.84937,29.07061 -30.30719,44.30055c2.88046,-3.0616 5.49861,-6.55413 8.23077,-9.65013c12.35755,-14.00321 24.98454,-27.76544 37.54053,-41.59084c18.40706,-20.26515 37.86285,-39.61363 56.52601,-59.64902c18.98787,-20.38396 38.64548,-40.10609 59.04925,-59.07342c4.63264,-4.21156 9.3409,-8.34212 13.76777,-12.77027l2.17157,-2.17157c0.36193,-0.36193 0.86193,-0.58579 1.41422,-0.58579c1.10457,0 2,0.89543 2,2c0,0.44767 -0.14708,0.86098 -0.39556,1.19426l-2.33966,3.21703c-1.65175,3.45123 -5.01943,6.82448 -7.60364,9.57834c-5.9978,6.39156 -12.55882,12.53994 -18.13303,19.30067c-7.58809,9.20328 -14.46899,19.1037 -21.6728,28.61273c-10.25531,13.53675 -21.21287,26.58446 -31.24599,40.28444c-6.28733,8.5852 -12.21909,17.45693 -18.32165,26.17487c-10.24186,14.63124 -21.48365,28.6135 -31.77088,43.20991c16.72695,-19.67956 33.32696,-39.48076 50.58761,-58.69189c10.69338,-11.90175 21.38676,-23.80349 32.08015,-35.70524c8.055,-8.96522 15.88857,-18.13335 24.59908,-26.46693c11.61496,-11.11235 23.23666,-22.21511 34.8894,-33.28553c12.72776,-17.07291 25.16328,-34.32456 37.67955,-51.55707l1.96613,-2.94919c0.35611,-0.5514 0.97608,-0.91641 1.68131,-0.91641c1.10457,0 2,0.89543 2,2c0,0.26347 -0.05095,0.51505 -0.14353,0.74541l-1.38831,3.70216c-0.64078,3.34708 -2.067,4.78167 -3.96272,7.46234c-3.07939,4.35446 -6.17647,8.69655 -9.26466,13.04477c-1.04446,1.47061 -2.08536,2.94002 -3.12213,4.40933c0.18897,-0.17769 0.37796,-0.35537 0.56696,-0.53303c3.62794,-3.41038 7.12881,-7.37303 11.07838,-10.40333c7.25788,-5.5686 15.58376,-9.85013 23.09795,-15.07228c6.30731,-4.38341 12.18069,-9.32656 18.79066,-13.25609l0.29077,-0.00137l-0.02367,-0.0897l3.52605,-0.93041c0.176,-0.05066 0.36195,-0.07779 0.55425,-0.07779c1.10457,0 2,0.89543 2,2c0,0.61217 -0.27504,1.16011 -0.70829,1.52697l-3.02715,2.59471l-0.31546,-0.36804c-4.14792,4.42596 -8.96421,8.01643 -13.2687,12.51937c-12.85549,13.44818 -25.64162,26.95292 -38.35623,40.53444c-17.31661,18.49728 -34.31397,37.23525 -51.19744,56.11824c-3.06686,5.10702 -6.13639,10.21242 -9.20748,15.31692c2.20211,-2.43265 4.42207,-4.84889 6.66302,-7.24574c19.04353,-20.3684 37.54612,-41.47521 57.71706,-60.72929c4.41646,-4.2157 8.65838,-8.99753 13.42576,-12.80854c7.32621,-5.85652 15.26587,-11.04575 22.71309,-16.77092l0.1728,-0.03759l-0.02565,-0.04848l3.50185,-1.85269c0.28709,-0.15933 0.61751,-0.25006 0.96912,-0.25006c1.10457,0 2,0.89543 2,2c0,0.5707 -0.23904,1.08557 -0.62245,1.44995l-2.8914,2.75817l-0.30802,-0.32291c-4.8331,6.2221 -11.05962,11.55691 -16.36346,17.37301c-11.31355,12.40625 -22.43443,24.97066 -33.54315,37.56054c-18.43938,20.89797 -36.48261,42.48741 -53.36084,64.66556c-3.23902,4.25611 -6.4756,8.51315 -9.70802,12.77275c0.24469,0.3318 0.3893,0.74192 0.3893,1.18582c0,0.26247 -0.05056,0.51313 -0.14247,0.74278l-1.38298,3.70411l-0.01239,-0.00463l-0.00977,0.06133c-1.40825,3.17051 -2.80225,6.34687 -4.25599,9.49683c-6.79735,14.72759 -13.87213,29.31868 -21.05752,43.85645c0.61007,-0.69548 1.22027,-1.39086 1.83057,-2.08615c13.62368,-20.13407 27.24736,-40.26815 40.87103,-60.40222c9.74655,-14.40417 19.29292,-28.47088 30.8787,-41.4774l1.95312,-2.9197c0.3564,-0.54982 0.97546,-0.91359 1.67948,-0.91359c1.10457,0 2,0.89543 2,2c0,0.25944 -0.0494,0.50733 -0.1393,0.7348l-1.36684,3.70999l-0.42399,-0.15621c-1.83322,8.87703 -6.09231,17.22677 -10.10301,25.3753c4.09252,-4.63842 8.18416,-9.27762 12.27479,-13.91772c18.55934,-21.05232 36.65938,-42.46458 56.70683,-62.11305c20.01586,-19.61751 39.94348,-39.45459 61.43798,-57.47704c5.10811,-4.28226 10.06978,-8.9464 15.41866,-12.92139c5.40731,-4.01841 11.36964,-7.4562 16.99764,-11.16208l0.24531,0.00631l-0.03662,-0.09808l2.24588,-0.83839c0.22962,-0.09189 0.48025,-0.14244 0.74268,-0.14244c1.10457,0 2,0.89543 2,2c0,0.79841 -0.46783,1.48754 -1.14432,1.80823l-1.96125,0.98063l-0.00943,-0.01887c-5.10607,5.855 -10.96602,11.13947 -16.44134,16.6148c-12.03218,12.03218 -24.18956,23.83944 -36.63879,35.43985c-8.75574,8.15875 -17.7637,16.11783 -26.29957,24.50546c-11.3854,11.18767 -22.21035,23.01465 -33.29566,34.50088c-18.45221,19.11959 -36.18777,38.76952 -53.86347,58.59584c3.2021,-2.92611 6.3912,-5.87006 9.58315,-8.81189c3.93152,-4.38006 7.88908,-8.73766 11.84441,-13.10216c7.87447,-8.68908 15.85847,-17.08568 25.91888,-22.97578l-0.18189,-0.24098l3.1768,-2.39793c0.33774,-0.2606 0.76113,-0.41563 1.22072,-0.41563c0.64176,0 1.21292,0.30226 1.57888,0.7722c0.42662,-0.61582 0.85324,-1.23162 1.27987,-1.84744c4.60195,-6.64277 8.854,-13.60254 14.601,-19.15453l-0.39205,-0.30158l2.42577,-3.1535c0.36499,-0.4844 0.94508,-0.79757 1.59832,-0.79757c1.10457,0 2,0.89543 2,2c0,0.34862 -0.0892,0.6764 -0.24601,0.96178l-1.10628,2.11339c-2.81703,5.38007 -5.82837,10.64902 -8.82973,15.92483h0.18203c1.10457,0 2,0.89543 2,2c0,0.16524 -0.02004,0.32581 -0.05783,0.4794c8.34627,-9.06341 16.78476,-18.03329 25.47204,-26.72204c19.80511,-19.8051 39.60949,-39.61091 59.41542,-59.41519c6.99778,-6.64446 13.89055,-13.40819 21.09443,-19.82564c1.24926,-1.39908 2.55041,-2.69913 3.94484,-3.80363l2.6118,-3.01362c0.36681,-0.42805 0.91138,-0.69928 1.5193,-0.69928c1.10457,0 2,0.89543 2,2c0,0.43073 -0.13617,0.82966 -0.3678,1.15609l-1.91153,2.77275l-0.08415,-0.05801l-0.07596,0.26085c-0.61351,0.53005 -1.22473,1.06252 -1.83385,1.59723c-0.98647,1.58723 -2.5338,2.87148 -4.0745,4.64921c-2.62279,3.0263 -5.21659,6.01374 -8.01261,8.88207c-12.99413,13.33015 -26.07513,26.58133 -38.96695,40.01042c-19.38254,20.19015 -38.87844,40.26801 -57.85519,60.84058c-8.49783,9.21244 -17.09204,18.35129 -25.6015,27.56582c-8.87208,16.97691 -17.78668,33.93158 -26.68593,50.89437c-1.65223,3.14925 -3.31052,6.29594 -4.975,9.43979c3.85455,-4.39531 7.73523,-8.77442 11.64524,-13.13908c18.73078,-20.90878 38.66054,-40.54203 58.50112,-60.39593c18.75408,-18.76666 38.56575,-36.34055 57.68164,-54.70451l0.25988,-0.05284l-0.04852,-0.08548l2.38756,-1.35519c0.29822,-0.17671 0.64629,-0.27814 1.01806,-0.27814c1.10457,0 2,0.89543 2,2c0,0.49682 -0.18115,0.95134 -0.48102,1.30109l-2.57598,3.04434l-0.32044,-0.27114c-6.33279,10.07794 -16.16459,18.21931 -24.4671,26.56424c-9.35638,9.40418 -17.54879,19.91534 -26.05885,30.08801c-17.93809,21.44265 -35.9989,42.76961 -54.16085,64.02296c-6.02248,7.04759 -12.43578,13.90542 -18.13317,21.21653c-11.41368,14.64647 -21.59674,30.45874 -32.33936,45.60772c-16.03123,22.6066 -31.70912,45.4717 -47.55054,68.21181c-1.50417,2.15922 -3.00191,4.32234 -4.49406,6.48892c-2.72145,4.85565 -5.44909,9.70819 -8.1783,14.56004c8.78625,-11.46044 17.57251,-22.92088 26.35877,-34.38131c6.50072,-8.47512 13.88083,-16.33576 20.89208,-24.39337c8.09943,-9.30819 16.19886,-18.61638 24.29829,-27.92456c10.0412,-12.4051 20.08239,-24.8102 30.12359,-37.21531c17.22069,-21.2748 34.58983,-42.49999 52.98387,-62.78333c10.74904,-11.85151 21.49808,-23.70301 32.24712,-35.55451c5.89609,-6.50081 11.85901,-13.52943 18.88008,-18.90115l-0.26676,-0.26676l2.82842,-2.82843c0.36193,-0.36193 0.86193,-0.58579 1.41422,-0.58579c1.10457,0 2,0.89543 2,2c0,0.21251 -0.03314,0.41727 -0.09454,0.60941l-0.81062,2.75304c-0.48156,1.61496 -1.08485,3.14063 -1.76881,4.61608c12.7555,-14.11534 25.23676,-28.45098 38.23578,-42.36834l0.03375,-0.01462l-0.00977,-0.00977l2,-2c0.36193,-0.36193 0.86193,-0.58578 1.41422,-0.58578c1.10457,0 2,0.89543 2,2c0,0.50108 -0.18427,0.95912 -0.48874,1.31005l-2.59591,3.02856c-0.29079,0.50901 -4.9226,5.6204 -5.30643,6.0478c-3.56358,3.96804 -7.12731,7.93595 -10.69096,11.90393c-11.57302,12.88606 -22.818,26.07057 -34.17505,39.14728c-0.81254,0.93556 -1.62392,1.87217 -2.43423,2.80976c-2.26502,3.9111 -4.59238,7.78373 -7.1152,11.56793c-15.54749,23.32109 -31.66039,46.21332 -47.79253,69.13302c-0.92911,1.32003 -1.86006,2.63868 -2.79272,3.95604c12.84731,-16.34284 25.68972,-32.68946 38.46073,-49.09204c17.21152,-22.10578 34.59914,-44.04888 52.13879,-65.89516c17.55212,-21.8618 35.1575,-43.61142 53.3154,-64.97365c17.9307,-21.09495 35.86813,-42.18418 53.8041,-63.27466c11.28065,-13.26465 23.36259,-25.65598 35.45557,-38.18041c5.42865,-5.62232 10.31445,-11.83049 16.20376,-16.89681l-0.28524,-0.26246l2.70362,-2.93831c0.3657,-0.40007 0.89183,-0.65102 1.47658,-0.65102c1.10457,0 2,0.89543 2,2c0,0.12031 -0.01062,0.23813 -0.03098,0.35259l-0.62661,3.91332l-0.07479,-0.01198l0.01729,0.26479c-7.86214,17.87957 -17.14709,34.80513 -26.53352,51.91925c-9.60037,17.18343 -19.05551,34.37261 -29.11253,51.23395c1.31106,2.42614 -2.94099,9.4654 -3.82952,11.06293c-0.66843,1.20181 -1.338,2.40299 -2.007,3.60448c-7.87806,10.77548 -15.75536,21.50507 -23.85249,32.05819c-9.7296,15.01138 -19.45918,30.02274 -29.18878,45.03412c14.32963,-17.78842 28.06614,-36.03024 41.44585,-54.556c3.44189,-4.7604 7.42158,-9.16935 11.20092,-13.66631l1.69125,-3.3825c0.32069,-0.67649 1.00983,-1.14433 1.80823,-1.14433c1.05591,0 1.9207,0.81828 1.99484,1.8553l0.20963,2.55914l-0.05831,0.00477c0.02177,0.17732 0.03202,0.35657 0.02863,0.5381c-0.02828,1.51281 -1.29871,2.73339 -1.96364,4.09254c-0.84647,1.73022 -1.70387,3.45537 -2.56626,5.17814c0.51031,-0.49011 1.02709,-0.97302 1.55083,-1.44804c5.28379,-6.90361 10.60412,-13.78011 15.88685,-20.6823c6.3727,-8.32631 13.11263,-17.37523 21.47897,-23.93088l-0.28323,-0.2687l2.74991,-2.89861c0.36462,-0.38594 0.88121,-0.62676 1.45405,-0.62676c1.10457,0 2,0.89543 2,2c0,0.28224 -0.05846,0.55082 -0.16394,0.79429l-1.48796,3.66427l-0.01336,-0.00543l-0.00639,0.05233c-2.79604,5.99403 -5.47926,12.05107 -8.54766,17.91094c-10.76984,20.56061 -23.22839,40.01664 -36.05027,59.31904c1.98572,-2.53796 3.97104,-5.07621 5.95822,-7.61301c1.05027,-1.34075 3.23736,-4.39309 4.79761,-5.50319l2.82842,-2.82843v0c0.36193,-0.36193 0.86193,-0.58578 1.41422,-0.58578c1.10457,0 2,0.89543 2,2c0,0.24032 -0.04239,0.47074 -0.12009,0.68419l-0.85175,2.52183c-1.28021,3.78712 -2.77976,7.47781 -4.30693,11.16448c2.3324,-3.33138 4.67989,-6.65686 7.03137,-9.98812c5.09807,-7.22227 10.20047,-14.93027 16.4762,-21.24809l-0.26326,-0.20476l2.44311,-3.14114c0.36539,-0.47917 0.94226,-0.78839 1.59136,-0.78839c1.10457,0 2,0.89543 2,2v3h-0.10728l0.08145,0.32036c-1.06743,3.31816 -2.17983,6.62116 -3.28208,9.92789c-1.47423,4.42269 -2.87599,8.87899 -4.27196,13.33942c5.98878,-9.7147 12.07262,-19.36382 18.47587,-28.82949c2.24124,-3.31314 4.48247,-6.62627 6.72371,-9.9394c1.49416,-2.20875 2.60798,-4.72959 4.48248,-6.62626l2.22435,-3.28817c0.35733,-0.54465 0.97339,-0.90434 1.67345,-0.90434c1.10457,0 2,0.89543 2,2c0,0.33531 -0.08252,0.65134 -0.22834,0.92891l-1.33199,2.6699c-3.57261,7.1607 -6.76493,14.51466 -10.38076,21.65187c-7.60055,15.00254 -16.1646,29.44333 -24.85969,43.82368c-4.8346,7.99569 -9.44029,16.19541 -14.53141,24.02949c-0.55036,0.84689 -1.1057,1.69123 -1.66559,2.53323c-1.69792,4.08423 -3.40477,8.16324 -5.07899,12.24715c0.26675,-0.43609 0.5335,-0.87217 0.80025,-1.30826c9.04225,-14.78208 18.11886,-29.54304 27.04914,-44.39307c2.74856,-4.57053 5.49322,-9.14344 8.24569,-13.71162c1.37401,-2.2804 2.74858,-4.98748 4.86002,-6.73581l2.59471,-3.02716c0.36687,-0.43325 0.9148,-0.70829 1.52697,-0.70829c1.10457,0 2,0.89543 2,2c0,0.33592 -0.08281,0.65249 -0.22914,0.93042l-0.9341,1.8682c-8.38011,25.32672 -19.48305,49.60519 -29.61066,74.26872c-7.99443,19.46865 -16.68858,38.66313 -25.36124,57.85382c7.26416,-11.26475 14.61228,-22.47664 22.0185,-33.6721c9.36105,-14.15042 18.89475,-27.98229 29.03292,-41.58701c4.6814,-6.28213 9.10339,-14.06525 15.77261,-18.47278l2.96747,-2.67072c0.35505,-0.32221 0.82641,-0.51855 1.34363,-0.51855c1.10457,0 2,0.89543 2,2c0,0.23752 -0.0414,0.46538 -0.11739,0.67674l-0.72033,2.16098c-3.27461,9.81392 -7.22867,19.48861 -11.47494,29.04553c10.11792,-16.35416 19.43759,-33.19015 30.57508,-48.88021l1.71821,-3.43641c0.32069,-0.67649 1.00982,-1.14433 1.80823,-1.14433c1.10457,0 2,0.89543 2,2c0,0.31 -0.07053,0.60352 -0.19642,0.8654l-1.63477,3.60355c-0.61344,2.59515 -2.20337,4.85691 -3.30505,7.28537c-2.7264,6.00985 -5.49001,11.97032 -8.44147,17.87324c-2.65006,5.30013 -5.26568,10.62194 -7.89901,15.93545c5.19106,-7.57951 10.51976,-15.04715 15.9787,-22.49116c1.57697,-2.15042 3.10226,-4.3397 4.73091,-6.45124c0.99934,-1.29563 1.58789,-3.1427 3.07423,-3.82691c1.3243,-0.60962 3.27349,-0.57087 4.35464,0.40715c0.97256,0.87979 0.38834,2.60081 0.4198,3.91188c0.15903,6.62693 -2.42639,13.5615 -3.93453,19.96736c-7.63955,26.91426 -16.47731,53.32133 -26.31358,79.52108c-5.61771,14.96326 -10.69055,30.2862 -16.90057,45.01159c-1.47444,3.49623 -3.04061,6.96265 -4.65435,10.41198c0.54377,0.35748 0.90276,0.97303 0.90276,1.67242c0,0.18297 -0.02458,0.36021 -0.0706,0.52858l-0.95926,3.83706l-0.02109,-0.00527l0.00144,0.07802c-1.07995,3.26175 -2.16255,6.52262 -3.24455,9.78369c-0.76364,2.4438 -1.53757,4.88669 -2.3256,7.32636c0.52148,-0.88426 1.04472,-1.76829 1.56975,-2.6522c4.07222,-6.8557 7.71576,-14.16982 12.66309,-20.40091l-0.3563,-0.21378l2.03913,-3.39854c0.34546,-0.59914 0.99255,-1.00244 1.73384,-1.00244c1.10457,0 2,0.89543 2,2c0,0.07912 -0.00459,0.15715 -0.01353,0.23387l-0.21268,2.05017l-0.03757,-0.00389l0.02567,0.09716c-2.40213,12.04067 -3.27817,24.47827 -5.92446,36.44212c-1.15096,5.20345 -3.08055,10.36422 -4.60182,15.47348c-2.76011,9.26999 -5.49589,18.54845 -8.23903,27.82499c-0.01253,0.21555 -0.0592,0.42194 -0.13468,0.61385l-0.24266,0.66202c-3.67399,12.4208 -7.36379,24.8373 -11.14551,37.22456c1.71612,-2.29366 3.40356,-4.60203 5.0094,-6.95451c3.84618,-5.63445 7.38733,-11.48378 11.18302,-17.15408c1.46177,-0.40368 3.02926,-1.8899 4.38531,-1.21105c1.18926,0.59536 0.88395,2.54862 0.94077,3.87736c0.20674,4.83461 -2.06299,10.69273 -3.14401,15.3761c-1.75646,7.60958 -3.80707,15.19678 -5.9832,22.72407c0.08717,0.22445 0.13498,0.46852 0.13498,0.72377c0,0.23753 -0.0414,0.46538 -0.11739,0.67674l-0.98524,2.95571c-0.08445,0.66584 -0.21659,1.31839 -0.38612,1.9603c1.24073,-2.06709 2.89715,-4.82069 2.93685,-4.85433c0.07234,-0.06129 0.14572,-0.12104 0.22009,-0.17932l-0.02571,-0.02782l2.78464,-2.5738c0.35705,-0.33207 0.83567,-0.53519 1.36174,-0.53519c1.10457,0 2,0.89543 2,2c0,0.33592 -0.08282,0.65249 -0.22914,0.93042l-1.70899,3.41799c-2.06495,7.22047 -5.48434,13.19042 -9.15984,19.70396c-1.14609,2.03103 -3.32952,7.41877 -7.13875,6.44816c-0.17537,0.05027 -0.36061,0.07718 -0.55214,0.07718c-0.60212,0 -1.14209,-0.26608 -1.50876,-0.68707c-1.05615,2.05671 -3.12681,6.08301 -3.21839,6.2086c-0.92789,1.27249 -1.93841,2.23039 -3.03021,3.06426l-2.82842,2.82843c-0.36193,0.36193 -0.86193,0.58578 -1.41422,0.58578c-1.10457,0 -2,-0.89543 -2,-2v-3h0.00995l-0.00959,-0.03796c0.20121,-4.79522 1.38939,-9.51186 2.95102,-14.14328c-1.9382,3.16656 -4.04079,6.24203 -6.39208,9.18367c-0.3577,0.44751 -5.19086,6.52818 -5.42705,6.6462c-0.86578,0.4326 -1.91154,0.96148 -2.94262,1.26477c-3.62888,7.85033 -6.82707,17.83117 -12.74041,24.11521l-2.18246,3.3142c-0.35503,0.55707 -0.97827,0.92656 -1.68782,0.92656c-1.10457,0 -2,-0.89543 -2,-2c0,-0.23829 0.04167,-0.46684 0.11813,-0.67877l1.25419,-3.7491c3.85582,-11.52386 8.79485,-22.39738 13.88034,-33.41593c0.71251,-1.54377 1.43711,-3.09012 2.17488,-4.63554c0.82418,-3.18633 1.82898,-6.3338 2.81682,-9.55428c0.13918,-0.45376 0.27948,-0.9069 0.42087,-1.35944c-2.83456,5.33601 -5.80266,10.58667 -9.00932,15.66387c-2.83022,4.48118 -5.38423,9.64829 -8.71812,13.76347c-1.4228,1.75622 -3.27771,3.19378 -5.23845,4.45871l0.05457,0.06297l-3.01476,2.61313c-0.35192,0.30849 -0.81302,0.49549 -1.31779,0.49549c-1.10457,0 -2,-0.89543 -2,-2c0,-0.00392 0,-0.00785 0.00003,-0.01177l0.02013,-3.99824l0.07726,0.00039l-0.05399,-0.29472c3.74246,-12.29501 8.15681,-24.33606 12.85647,-36.29984c0.21665,-0.55147 0.43325,-1.10296 0.64983,-1.65447c-5.59528,11.41294 -11.32754,22.76217 -17.1283,34.11148c-7.08837,13.86855 -15.5787,27.02878 -23.59081,40.38231c-4.69229,7.82048 -9.24134,16.41619 -15.31991,23.34237l0.3458,0.22478l-2.16224,3.32653c-0.33833,0.53836 -0.92612,0.90411 -1.60125,0.93513c-3.1349,5.60357 -6.49001,11.207 -10.98944,15.33787c-3.94635,3.58759 -7.8927,7.17518 -11.83904,10.76277c-0.66024,0.60021 -6.19772,5.70697 -6.69104,5.81741c-1.70303,0.38128 -4.0444,0.23577 -5.10823,-1.14769c-1.13021,-1.46978 -0.24555,-3.71813 -0.05129,-5.56201c0.00545,-0.05176 2.08266,-7.89298 2.1137,-7.99128c4.41658,-13.98586 10.28746,-27.63873 15.73055,-41.24645c3.96139,-9.90346 7.57127,-20.04805 11.91697,-29.78778c6.98944,-15.66495 15.41905,-30.84197 23.09136,-46.18658c0.84124,-1.68248 1.68944,-3.36108 2.54403,-5.03614c-6.89345,12.01711 -13.75435,24.05705 -20.81585,35.97346c-4.06043,6.85206 -7.69719,14.15918 -12.56887,20.4493l0.33362,0.1977l-2.02023,3.40913c-0.344,0.60465 -0.99417,1.01243 -1.73957,1.01243c-1.10457,0 -2,-0.89543 -2,-2v-3c0,-22.93955 7.22994,-45.12315 14.72172,-66.68786l-0.78798,1.28238c-0.34814,0.58851 -0.98928,0.98319 -1.7226,0.98319c-1.10457,0 -2,-0.89543 -2,-2c0,-0.33591 0.08282,-0.65249 0.22914,-0.93042l1.74289,-3.48579c2.79982,-7.01089 5.86308,-13.72618 9.23911,-20.47822c6.97537,-13.95074 13.60696,-28.14819 20.969,-41.89763c5.66544,-10.58083 11.93264,-20.88365 17.88768,-31.30496c8.91067,-15.59309 18.19122,-30.9752 27.4026,-46.39672c0.06916,-0.14982 0.13831,-0.29964 0.20745,-0.44944c8.51146,-18.44148 17.0222,-36.87948 25.64112,-55.26862c-7.89089,11.90512 -15.73935,23.83807 -23.48924,35.83787c-14.90651,23.08104 -30.49674,45.56615 -46.29989,68.04174c-7.43032,10.56757 -14.65562,21.25158 -21.77508,32.00514c-3.81173,7.41138 -7.6848,14.79196 -11.66638,22.12644c-3.10411,5.71809 -5.75556,12.22804 -9.84886,17.34823l0.33817,0.16908l-0.98063,1.96125c-0.32069,0.67649 -1.00982,1.14432 -1.80823,1.14432c-1.10457,0 -2,-0.89543 -2,-2c0,-0.05845 0.00251,-0.11631 0.00742,-0.17349l0.06,-0.78822c-8.96357,13.84287 -18.08695,27.57074 -27.2466,41.28578c-2.96204,4.43517 -5.92409,8.87034 -8.88614,13.30551c-0.0949,0.14209 -4.52443,6.78009 -4.56009,6.8106c-0.04996,0.04273 -0.10034,0.08486 -0.15112,0.12644l0.01916,0.01916l-2.82842,2.82843c-0.36193,0.36193 -0.86193,0.58578 -1.41422,0.58578c-1.10457,0 -2,-0.89543 -2,-2c0,-0.29551 0.06409,-0.57605 0.17912,-0.82848l1.25556,-2.92962c1.90402,-4.4427 3.60205,-9.03317 5.96082,-13.25492c7.81455,-13.94896 15.18755,-28.27948 23.49626,-41.93819c6.23462,-10.24911 13.23949,-20.10675 19.83801,-30.12672c14.85854,-22.56298 27.8831,-46.61994 39.9594,-70.77254c8.07078,-16.14156 16.17711,-32.26357 24.32869,-48.36448c1.17606,-2.32294 2.58483,-4.5411 3.53616,-6.96476c0.52059,-1.32629 0.85201,-2.74589 1.16572,-4.16553c-11.07117,20.83079 -23.44175,40.95747 -35.87782,61.00645c-14.75389,23.78534 -29.62167,47.49791 -43.97211,71.52914c-9.61453,16.10048 -19.0057,32.20567 -29.76209,47.57194c-3.8491,5.49872 -7.3013,11.25097 -11.80503,16.10616l0.36142,0.24095l-1.9828,2.97419c-0.35611,0.5514 -0.97608,0.91641 -1.68131,0.91641c-1.10457,0 -2,-0.89543 -2,-2c0,-0.23085 0.03911,-0.45257 0.11107,-0.65888c1.2289,-3.80654 3.45757,-10.70985 4.68648,-14.51639c4.01882,-12.44831 8.48519,-25.01173 13.49369,-37.2262c-0.26526,0.34453 -0.53046,0.6891 -0.79559,1.03373c-7.35249,12.03949 -14.40537,24.28227 -21.71045,36.26948c-2.00356,4.88723 -4.01672,9.7705 -6.02783,14.65462l-0.90801,2.20515c0,0 -0.7615,1.84936 -2.61086,1.08785zM221.66054,34.23743c0.62404,-0.68261 1.24842,-1.36492 1.8732,-2.04684l-0.13156,-0.13155c-0.56806,0.73349 -1.1493,1.4593 -1.74164,2.1784zM390.64751,174.34165c-2.99813,4.27721 -5.99724,8.55337 -9.01566,12.81466c-7.76873,10.95973 -15.4933,21.92967 -23.33677,32.81059c-1.83071,3.42266 -3.66406,6.84393 -5.50053,10.26356c-8.67286,16.14946 -17.34994,32.28432 -26.29224,48.28632c-1.52729,2.73305 -3.05459,5.4661 -4.58188,8.19915c1.50356,-2.52369 3.00651,-5.05013 4.51509,-7.57638c14.36199,-24.05057 29.24147,-47.78235 44.00722,-71.58681c6.83087,-11.01217 13.62824,-22.04915 20.20477,-33.21108zM313.22806,294.01996c-0.04865,-0.6175 0.23897,-1.16593 0.62543,-1.69407c2.46458,-6.37383 5.8924,-12.0702 8.7894,-18.29991c2.74816,-5.90967 5.5379,-11.78815 8.36682,-17.64364c-6.59562,8.42377 -13.17903,16.85264 -19.73498,25.30183c-0.46182,0.98213 -0.91544,1.96708 -1.35933,2.95529c-7.02114,15.63085 -13.0517,32.12253 -18.3113,48.41418c-0.17605,0.54532 -0.3521,1.09063 -0.52815,1.63594c1.91827,-2.74038 3.83657,-5.48075 5.75484,-8.22114c6.28807,-8.98296 12.10593,-18.2207 17.77573,-27.56205c-0.1913,0.06081 -0.39508,0.09362 -0.60652,0.09362c-1.10457,0 -2,-0.89543 -2,-2c0,-0.33591 0.08281,-0.65249 0.22914,-0.93041l0.93882,-1.87764c0.01995,-0.05739 0.03997,-0.11472 0.06009,-0.17199zM328.66487,247.49543c7.36494,-10.03302 14.65985,-20.10967 21.90831,-30.22365c8.52606,-16.91942 15.86677,-34.46034 24.67156,-51.23044c3.4008,-6.47736 7.75919,-12.61417 11.59438,-18.84654c7.96422,-12.94225 15.90702,-25.89755 23.8415,-38.85796c4.59179,-9.55544 9.18446,-19.11045 13.77864,-28.66474c-6.55379,8.97677 -13.34377,17.81472 -19.812,26.77074c-0.36114,0.50004 -0.72219,1.00014 -1.08315,1.50031c-0.07549,0.13479 -0.15098,0.26958 -0.22647,0.40438c-13.67994,24.42847 -27.29067,48.89472 -40.89027,73.368c-11.96298,21.52808 -22.75815,43.73952 -33.78249,65.77991zM472.25296,-7.08861c-8.67907,13.00809 -16.79997,26.339 -24.94388,39.68712c-0.84412,2.52911 -1.71242,5.04803 -2.61733,7.55129c-0.32387,0.89592 -0.65201,1.79066 -0.98401,2.68431c1.34862,-2.2842 2.69936,-4.56502 4.06854,-6.82944c8.55299,-14.14532 16.9805,-28.34741 24.47668,-43.09328zM278.89345,273.65331c1.02518,-1.62043 2.05037,-3.24088 3.07555,-4.86131c14.9723,-23.66571 30.41611,-47.04163 45.66024,-70.53322c4.19274,-6.46111 8.51011,-12.86641 12.71825,-19.33378c2.94358,-6.03188 5.91571,-12.05437 8.93704,-18.05077c-2.51804,3.09925 -5.06192,6.18275 -7.6266,9.26037c-12.04212,14.45054 -24.38612,28.50479 -37.0158,42.34935c-0.72739,1.33089 -1.45725,2.65973 -2.19075,3.98567c-13.22969,23.91521 -27.2756,47.51439 -36.53303,73.31852c-0.23849,0.66475 -0.47728,1.32939 -0.71647,1.99387c1.9392,-2.56646 3.87987,-5.13182 5.8195,-7.69796c2.62714,-3.47571 5.25221,-6.95164 7.87208,-10.43074zM318.44007,187.19863c10.544,-12.33504 21.08918,-24.65401 32.00797,-36.66469c3.50228,-3.85251 6.73401,-7.98546 10.30079,-11.73695c2.38135,-4.43068 4.80478,-8.83506 7.27899,-13.20609c13.82689,-24.42707 27.99765,-48.50161 42.77899,-72.3636c2.94306,-4.75107 5.97574,-9.42667 9.0695,-14.05682c1.85899,-4.49786 3.70477,-8.99591 5.55445,-13.48276c1.11575,-2.7065 2.25491,-5.39741 3.33677,-8.11071c-0.21785,0.25676 -0.43766,0.52412 -0.65776,0.80562c-3.28501,4.20156 -6.57396,8.40005 -9.86093,12.60008c-10.58886,13.53021 -19.0697,28.84821 -28.20184,43.39845c-14.75307,23.50605 -30.17674,46.56893 -45.02656,70.01302c-7.08857,11.19106 -14.55281,22.22625 -21.29987,33.62543c-1.79649,3.03517 -3.55176,6.09835 -5.28051,9.17901zM327.49203,219.58486c-1.88052,2.75162 -3.78281,5.4882 -5.69967,8.21467c-0.45008,1.15683 -0.88393,2.31736 -1.2986,3.48149c1.69295,-2.82043 3.38875,-5.63916 5.08117,-8.45987c0.64498,-1.07496 1.28383,-2.15385 1.9171,-3.23629zM423.56629,40.71278c-0.22909,0.55416 -0.45839,1.10833 -0.68791,1.66246c-0.00392,0.11563 -0.01767,0.22877 -0.04042,0.33861l-0.72932,3.89221l-0.04652,-0.00872c-0.01092,0.10836 -0.02421,0.21667 -0.04006,0.32489c-0.20907,1.42703 -1.39735,2.52348 -2.10166,3.78208c-0.69119,1.23516 -1.38451,2.46915 -2.0791,3.70244c-6.81073,16.04799 -14.01022,31.94664 -22.37084,47.18291c-6.69049,12.19265 -13.35069,24.39599 -19.96211,36.62559c2.20647,-3.10305 4.41051,-6.20783 6.61134,-9.31489c2.31207,-3.26409 4.62172,-6.52991 6.93621,-9.79229c0.73919,-1.04192 1.11296,-2.48736 2.21567,-3.12878l0.92126,-1.83714c0.32114,-0.67531 1.00965,-1.14214 1.80719,-1.14214c0.30545,0 0.59489,0.06848 0.85384,0.19091c1.77555,-2.46889 3.55292,-4.93646 5.33242,-7.40249c13.2973,-23.74147 26.64515,-47.34792 40.8363,-70.56904c0.87982,-1.43966 1.75859,-2.87952 2.63704,-4.31921c3.19252,-9.59622 6.04415,-19.33601 9.23775,-28.91681c0.3927,-1.17808 0.78257,-2.35714 1.17418,-3.53562c-0.60404,0.72095 -1.23968,1.45467 -1.86013,2.25239c-2.19813,2.82616 -4.48447,5.60552 -6.60467,8.49083c-7.58967,10.32856 -14.97681,20.82287 -22.04046,31.52183zM393.71153,143.65618c-1.15483,1.87858 -2.31007,3.7569 -3.46576,5.63495c-3.79758,6.17126 -8.1308,12.25021 -11.49051,18.66753c-5.19908,9.93068 -9.89673,20.12448 -14.6336,30.29832c0.97911,-1.38147 1.95764,-2.76356 2.93564,-4.14625c0.63545,-0.89836 1.27248,-1.79564 1.91095,-2.69194c6.42458,-12.10171 12.83235,-24.21237 19.24633,-36.32008c1.83233,-3.81417 3.66463,-7.62835 5.49694,-11.44253zM414.23053,110.19921c-7.48039,15.56799 -14.96299,31.13493 -22.44511,46.70208c-2.02177,3.81886 -4.04321,7.63787 -6.06498,11.45668c3.08327,-4.20035 6.16783,-8.39933 9.2368,-12.60819c3.72947,-5.11471 7.25908,-10.46773 11.43418,-15.2278c0.03249,-0.03705 5.31546,-6.05715 5.32069,-6.061c0.01768,-0.01301 0.0354,-0.02597 0.05315,-0.03887l-0.00788,-0.00788l2.82842,-2.82843l0.80902,0.80902c0.63016,-0.30473 1.2602,-0.60966 1.87318,-0.94149l-0.55956,2.01897l0.95568,0.63712l-1.83564,2.75346c-0.02175,0.52747 -0.05261,1.05044 -0.09218,1.5692l1.01458,0.29111l-1.10317,3.84486l-0.39932,-0.11457c-0.66318,3.98929 -1.81922,7.75477 -3.26902,11.43688c10.35751,-23.03137 20.95695,-45.98906 30.54656,-69.3424c8.71935,-21.23403 18.07005,-42.18569 25.92122,-63.73832c-1.78188,2.97998 -3.4275,6.08394 -5.1852,9.00679c-9.62279,16.00161 -19.38279,31.91844 -29.12624,47.84683c-6.6344,10.84578 -13.2669,21.69266 -19.90517,32.53599zM389.2383,203.06313c-3.31468,5.96696 -6.56307,11.97287 -9.84413,17.96929c-6.39276,11.68331 -12.82727,23.23056 -18.34959,35.35269c-2.106,4.62293 -4.16559,9.24993 -6.18036,13.88944c1.49189,-2.27294 2.98747,-4.54327 4.4877,-6.81053c4.71527,-9.14806 9.34899,-18.33794 13.95893,-27.55781c5.44495,-10.8899 10.72902,-21.84656 15.92746,-32.84307zM409.18234,169.71103c-10.41575,22.56324 -20.85742,45.07875 -31.9615,67.31895c1.40898,-2.03242 2.82476,-4.06092 4.24805,-6.08515c15.77302,-22.43274 31.33379,-44.87415 46.21185,-67.91114c12.69335,-19.65421 25.65089,-39.12921 38.62632,-58.59627c7.59924,-15.94987 15.36795,-32.19177 21.32058,-48.82953c-0.96956,0.81826 -2.03821,1.6362 -3.06916,2.76708c-2.59175,2.84301 -4.74485,6.38358 -7.0447,9.46982c-10.89437,14.6195 -21.23487,29.40504 -31.29435,44.61122c-12.55503,18.97853 -24.94285,38.00407 -37.0371,57.25502zM478.57884,109.03723c-12.00441,22.27055 -23.56226,44.98268 -36.89559,66.43289c-5.16844,8.31482 -10.4977,16.56047 -15.67345,24.88907c-9.65258,20.69783 -19.63704,41.35417 -30.76624,61.22776c-9.11503,16.27683 -17.99667,32.69429 -27.76374,48.58961c-0.79252,1.28978 -1.58504,2.57955 -2.37756,3.86933c-0.9154,2.76243 -1.76323,5.55649 -2.70404,8.2623c-7.74032,22.2614 -16.26736,45.2187 -17.29511,68.97071c0.69236,-1.16179 1.51959,-2.3153 2.29393,-3.622c2.03921,-3.44117 4.07842,-6.88233 6.11763,-10.3235c9.40701,-15.87432 18.51863,-31.92669 27.73963,-47.90975c13.99527,-24.25846 28.48276,-48.23744 42.78886,-72.31385c3.82758,-6.44162 7.80065,-12.83413 11.60474,-19.30908c2.5835,-4.9437 5.15102,-9.89805 7.71719,-14.85824c1.85731,-3.59001 3.86674,-7.06192 5.89162,-10.55943c1.20319,-2.07824 1.88393,-4.57972 3.45366,-6.36102c0.19242,-0.35352 0.38561,-0.70665 0.57965,-1.05931l0.07159,-0.05498l-0.0257,-0.01713l1.9828,-2.97419c0.35611,-0.5514 0.97608,-0.91641 1.68131,-0.91641c1.10457,0 2,0.89543 2,2c0,0.37756 -0.10462,0.73069 -0.28645,1.03197l-1.98684,3.43182c-0.87285,2.51977 -2.67219,4.6156 -4.00829,6.92341c-0.22875,0.39512 -0.45732,0.78988 -0.6855,1.18451c-2.03634,3.71827 -4.0713,7.43235 -6.1143,11.14024c-8.26256,15.96651 -16.56336,31.86422 -25.38095,47.53612c-13.52253,24.0342 -27.35913,47.86702 -39.69308,72.53491c-7.64727,15.29454 -16.05523,30.4219 -23.0201,46.03634c-4.322,9.68944 -7.91125,19.78277 -11.85203,29.63473c-4.45371,11.13428 -8.75757,22.29151 -12.89805,33.54571c-1.37273,3.73122 -2.70922,7.35268 -3.73136,11.19645c-0.54359,2.04415 -1.79717,3.99162 -1.72827,6.1057c0.00912,0.2799 0.59532,-0.03969 0.81142,-0.21781c0.80817,-0.66613 1.43296,-1.52911 2.18824,-2.25466c0.96155,-0.9237 1.97318,-1.7938 2.95976,-2.69069c3.94635,-3.58759 7.89269,-7.17518 11.83904,-10.76277c5.23077,-4.70136 8.84042,-11.78313 12.40116,-18.26269c1.60793,-7.26527 3.1366,-14.34665 5.76517,-21.33496c6.35696,-16.9006 12.11581,-34.60039 20.2301,-50.78727c-1.01528,-0.09586 -1.80964,-0.95069 -1.80964,-1.99106c0,-0.21613 0.03428,-0.42424 0.09771,-0.61922l0.68786,-2.29287c1.91012,-6.36705 4.21107,-12.40667 6.70856,-18.56504c4.65508,-9.62611 9.06592,-19.42465 13.99181,-28.9144c7.98226,-15.37788 16.84472,-30.35974 25.19558,-45.54313c8.20668,-14.92122 16.79669,-29.43889 25.79468,-43.89622c3.19394,-5.13179 6.3625,-10.4186 10.07869,-15.20875c3.29117,-6.77569 6.56687,-13.56913 9.48118,-20.47966c6.18919,-14.67602 11.24253,-29.94998 16.84145,-44.86319c9.78711,-26.06881 18.57758,-52.34274 26.1866,-79.11989c0.91216,-3.87897 1.82088,-7.75879 2.73752,-11.63672c0.42396,-1.79362 0.55984,-3.64036 0.77612,-5.47349c-2.65617,4.54922 -6.81833,8.86809 -9.79223,12.92341c-7.09667,9.67728 -13.75039,19.51987 -20.28077,29.58724c-3.93317,6.06346 -7.95585,12.08542 -11.92593,18.13917zM451.02898,238.47026c-6.48442,10.71422 -12.78269,21.50476 -18.8426,32.52276c-8.33537,15.15522 -17.18281,30.10897 -25.15024,45.45828c-4.8886,9.41794 -9.26113,19.14394 -13.88616,28.69479c-1.28152,3.16491 -2.50994,6.29556 -3.65784,9.45759c1.31095,-1.43417 2.7348,-2.82728 4.02409,-4.2129c1.8825,-2.95721 3.77003,-5.90203 5.56157,-8.86223c1.49845,-2.47592 2.99141,-4.95499 4.47988,-7.43664c1.42749,-2.70501 2.84372,-5.41077 4.30972,-8.06085c5.1263,-9.26677 10.69481,-18.41634 15.1937,-28.00361c9.32262,-19.8524 18.64525,-39.70479 27.96787,-59.55719zM460.35611,244.92858c-1.73751,4.66197 -3.56772,9.28768 -5.51828,13.86034c-1.91551,4.49048 -3.97148,8.93484 -6.08862,13.35615c0.73338,0.29649 1.25079,1.01529 1.25079,1.85494v2h-0.06078c0.01432,0.13272 0.02133,0.2667 0.01994,0.40213c-0.01512,1.46736 -1.12505,2.71071 -1.69654,4.06229c-2.07695,4.91204 -4.20185,9.80445 -6.30271,14.70632c-7.16278,16.71268 -13.68893,33.7001 -20.33667,50.6216c-4.55536,11.59447 -8.76648,23.27511 -12.53044,35.14413c1.27517,-1.55513 2.95084,-2.44217 4.39045,-4.24011c4.00877,-5.00659 7.07513,-11.2459 10.50563,-16.67413c7.87719,-12.46442 13.99387,-26.45988 20.58883,-39.64979c1.11626,-2.23252 2.28081,-4.44716 3.46167,-6.656c2.02073,-4.56741 4.11999,-9.11256 6.28055,-13.65301c2.60874,-5.4823 4.89449,-11.80098 8.57499,-16.74554c0.10938,-0.19045 0.22071,-0.38034 0.33416,-0.56966l0.1963,-0.53555l-0.21424,-0.10712l0.78867,-1.57733c2.79781,-9.4604 5.58728,-18.923 8.40212,-28.3768c1.49385,-5.01718 3.39974,-10.08651 4.5299,-15.19591c2.02758,-9.16666 2.99769,-18.61554 4.43675,-27.9455c-0.27666,0.42105 -0.5552,0.85496 -0.82754,1.30886c-2.05651,3.42751 -4.09767,6.86389 -6.13897,10.30048c-4.79966,8.08037 -9.48883,16.15729 -14.04596,24.30919zM452.90547,331.20164c-0.26724,0.85918 -0.53503,1.71818 -0.80341,2.57699c-1.86241,5.93432 -4.78305,11.39325 -7.45812,17.00316c-2.62556,5.50607 -5.2511,11.01214 -7.87666,16.51821c1.81266,-2.30487 3.56698,-4.58375 5.14957,-7.12275c5.46508,-8.76782 9.74588,-17.7939 14.2908,-27.06466l0.00567,-0.00594l-0.00218,-0.00108l1.76948,-3.53895c0.32069,-0.67649 1.00983,-1.14433 1.80823,-1.14433c1.10457,0 2,0.89543 2,2c0,0.22949 -0.03866,0.44997 -0.1098,0.65525l-1.20731,3.76445l-0.00569,-0.00182c-0.00155,0.0111 -0.00312,0.0222 -0.00471,0.03331c-0.00025,0.0018 -2.69725,7.54154 -2.70526,7.56394c-3.42672,9.5797 -8.9058,19.88559 -9.68129,30.21617c0.62721,-0.84733 1.35297,-1.64803 1.96606,-2.48881c1.5104,-2.07133 2.32202,-4.57112 3.49375,-6.85119c4.15843,-8.09185 7.76966,-15.71944 10.19188,-24.51765l0.19198,-0.17062l-0.08683,-0.04838l0.22056,-0.39578c1.71789,-6.04058 3.38648,-12.09426 5.04615,-18.15605c1.64985,-6.02594 3.07583,-12.13563 4.20126,-18.28223c-4.94405,7.82058 -10.14106,15.44054 -15.54888,22.9577c-1.56516,2.17565 -3.21333,4.33053 -4.84526,6.50108zM364.62488,427.6671c8.04693,-13.03044 16.38932,-26.01559 23.08867,-39.73331c4.18588,-8.57108 8.33277,-17.1539 12.43894,-25.75393c1.76364,-7.3582 4.10693,-14.00514 7.02889,-21.0121c5.43899,-10.8894 10.79098,-21.82175 16.1542,-32.74815c-6.01273,10.17188 -11.95661,20.38504 -18.03055,30.52119c-2.61632,4.67796 -5.33659,9.29931 -8.43044,13.61405c-3.10935,4.88067 -6.20011,9.79696 -8.80345,14.87608c-8.41684,16.42125 -14.26317,34.51595 -20.74768,51.75563c-1.05659,2.80904 -1.92867,5.63387 -2.69859,8.48054zM342.62785,289.06617c2.1545,-5.38573 4.38214,-10.73334 6.67104,-16.05945c-1.71802,2.72456 -3.46035,5.43044 -5.22843,8.11532c-6.57215,9.97993 -13.55165,19.79749 -19.76131,30.00558c-7.7557,12.74962 -14.69211,26.08821 -21.93905,39.15046c0.63428,-0.94972 1.26855,-1.89943 1.90282,-2.84915c10.3632,-15.51717 20.7039,-31.03752 30.82615,-46.71312c2.50923,-3.88587 5.01732,-7.76979 7.52878,-11.64963zM404.5425,169.57978c0.37163,-0.59303 0.74355,-1.18583 1.11574,-1.77842c0.80883,-1.75214 1.61752,-3.50456 2.42638,-5.25716c-1.00596,2.04459 -2.05494,4.09795 -3.11158,6.18502c-0.14353,0.28351 -0.28705,0.56703 -0.43053,0.85056zM296.97823,293.64442c5.34114,-8.72781 10.84368,-17.34619 16.69481,-25.68799c2.36417,-4.53926 4.77124,-9.05689 7.06649,-13.59855c12.59005,-24.91223 24.65298,-50.18611 38.21141,-74.58529c7.96604,-14.33535 15.9359,-28.66829 23.92124,-42.99264c-4.92203,6.88902 -9.8374,13.78283 -14.75329,20.6762c-5.32183,8.22682 -10.65844,16.4437 -16.00568,24.65378c-7.4749,14.37254 -14.78402,28.89539 -23.10831,42.76921c-2.05798,3.42997 -4.11597,6.85995 -6.17395,10.28992c-0.11312,0.18853 -4.20403,7.01587 -4.25454,7.06178c-0.06056,0.05505 -0.12217,0.10861 -0.18476,0.16082l0.02256,0.02257l-2,2l-0.55835,-0.55835c-0.62138,0.28393 -1.24873,0.55947 -1.84033,0.88506l-0.08986,-2.00829l-0.86648,-0.21563l0.72625,-2.91825c0.07074,-0.28315 0.14296,-0.56611 0.2166,-0.84887c-7.74734,10.79825 -15.57275,21.54131 -23.0203,32.54218c-6.29768,10.21751 -12.5858,20.46696 -18.22629,30.98688c-4.37979,8.16863 -8.0541,16.80951 -12.06065,25.16912c-6.69028,13.95918 -13.54799,27.74299 -19.50276,41.97004c1.27446,-1.85739 2.54893,-3.71477 3.8234,-5.57216c10.59299,-15.43808 21.75908,-30.36639 33.01923,-45.32315c6.27089,-8.32956 12.59009,-16.61768 18.94354,-24.87835zM342.66611,183.2977c-0.47669,0.97986 -0.9527,1.95991 -1.42813,2.94007c2.01556,-2.83159 4.03325,-5.66174 6.05332,-8.49027c3.30665,-4.63001 6.61536,-9.25857 9.9235,-13.88754c10.10278,-19.00092 20.35543,-37.91121 30.68954,-56.78832c-0.84801,1.39272 -1.70376,2.78104 -2.56832,4.16434c-4.5734,7.31745 -9.07058,14.66539 -13.50933,22.04251c-7.0009,12.33666 -13.82772,24.81959 -21.21645,36.91285c-1.66812,2.73025 -3.37722,5.43862 -5.11067,8.1335c-0.83361,1.46035 -1.66637,2.92171 -2.4984,4.38407c-0.11167,0.19627 -0.22336,0.39253 -0.33506,0.58879zM287.63973,269.09447c0.22751,-0.36917 0.45503,-0.73831 0.68252,-1.10742c-3.42061,4.79913 -6.83896,9.60163 -10.2336,14.41996c-8.0828,12.77594 -16.16559,25.55187 -24.24839,38.32781c9.6761,-14.82296 19.35219,-29.64592 29.0283,-44.46888c1.56969,-2.40463 3.16162,-4.79407 4.77118,-7.17147zM311.2543,191.91834c2.93594,-5.35999 5.91919,-10.69063 9.02513,-15.93795c6.76747,-11.43325 14.25207,-22.50205 21.36187,-33.72661c14.84687,-23.43943 30.26759,-46.49765 45.01772,-69.99901c1.08778,-1.73317 2.16895,-3.47119 3.24702,-5.21154c-0.10481,0.14465 -0.20976,0.28918 -0.31485,0.43359c-8.62223,11.8477 -18.22686,23.09805 -27.30548,34.60173c-3.94799,5.00257 -7.89178,10.00657 -11.82797,15.01547c-0.61595,1.10892 -1.23195,2.21783 -1.84799,3.32671c-13.06842,23.52315 -25.04069,47.57634 -37.35544,71.49762zM384.66894,55.7066c6.17176,-9.36187 12.16901,-18.8576 18.33714,-28.18887c7.58414,-11.47344 14.48559,-23.15955 21.17404,-35.10955c-0.53278,0.47204 -1.07912,0.93698 -1.62799,1.39725c-2.73169,3.7186 -5.45584,7.42787 -8.19321,11.09612c-1.83254,2.45566 -3.66384,4.91228 -5.49443,7.36949c-6.37905,11.96278 -13.09666,23.73022 -19.76271,35.55707c-1.47958,2.62508 -2.95711,5.25128 -4.43284,7.87849zM342.50572,77.5115c4.89576,-7.32657 9.76911,-14.66798 14.60081,-22.03724c3.2244,-5.54709 6.4297,-11.10694 9.51888,-16.71943c-17.24959,19.75661 -34.32444,39.66407 -51.44064,59.5365c-2.38671,2.77061 -4.79891,5.5194 -7.23026,8.25182c-8.75706,11.99916 -17.48262,24.02151 -26.23222,36.02572c-5.19365,7.12554 -10.38428,14.25327 -15.57306,21.38235c12.51914,-13.52436 24.92307,-27.14998 37.31313,-40.80434c13.46006,-14.83354 26.2892,-30.19916 39.04336,-45.63538zM243.9204,187.70795c11.51675,-15.83636 23.03566,-31.67116 34.56941,-47.49515c1.77865,-2.44026 3.55631,-4.88126 5.33344,-7.32267c-8.45929,9.11955 -16.90263,18.25464 -25.08228,27.61888c-18.42669,21.09527 -36.81304,42.21941 -55.49901,63.08559c-1.65751,1.85091 -3.31121,3.70306 -4.96053,5.55757c-4.62912,6.69476 -9.24726,13.39683 -13.85697,20.10488c1.58122,-1.53331 3.16245,-3.06662 4.74368,-4.59993c18.90067,-18.32792 36.70953,-37.77174 54.75226,-56.94916zM159.41238,265.78368c5.94261,-7.68464 11.43954,-15.51498 17.79049,-22.88208c10.47726,-12.15362 21.10806,-24.16426 31.76099,-36.15671c0.45418,-0.65182 0.90849,-1.30356 1.36293,-1.95521c15.87465,-22.76365 31.74088,-45.52536 47.87163,-68.10842c5.08616,-7.12063 10.16753,-14.24479 15.24919,-21.36876c-11.68583,13.27769 -23.46242,26.47698 -35.74814,39.18634c-19.3292,19.99572 -39.16566,39.59376 -57.4255,60.57315c-0.20571,0.23636 -0.41143,0.47271 -0.61715,0.70906c-4.4059,5.76692 -8.7974,11.5462 -13.17442,17.33932c-7.08479,9.37692 -14.04252,18.84933 -20.94234,28.36473c-4.6387,6.68466 -9.27163,13.37294 -13.92538,20.04517c-8.41094,12.05904 -16.73455,24.13916 -24.93391,36.30445c7.63611,-5.54937 15.27221,-11.09873 22.90831,-16.6481c7.04835,-5.12223 13.15439,-11.36332 19.35173,-17.4898c-0.56502,-0.35343 -0.94082,-0.98125 -0.94082,-1.69683c0,-0.39916 0.11693,-0.771 0.31841,-1.08315l1.37369,-2.2072c2.87939,-4.61782 6.39722,-8.62878 9.72028,-12.92597zM94.19261,326.91022c6.43708,-9.49534 12.96023,-18.93023 19.66622,-28.2344c9.4837,-13.15807 18.89615,-26.37215 28.41847,-39.50469c0.28111,-0.4051 0.56225,-0.81017 0.84341,-1.21523c-5.62831,6.56117 -11.23433,13.14203 -16.80778,19.7524c-9.37571,11.12003 -19.31745,21.96697 -28.04615,33.6008c-6.22958,8.30293 -12.05381,17.96311 -19.53935,25.35443l0.31204,0.23639l-2.40181,3.17039c-0.1431,0.19306 -0.32014,0.35945 -0.52231,0.49034c1.89261,-0.83605 3.22392,-2.85611 4.93699,-4.10104c3.23579,-2.35153 6.47157,-4.70306 9.70735,-7.0546c1.14431,-0.83159 2.28861,-1.6632 3.43291,-2.4948zM74.17097,334.1909c3.1971,-4.90776 6.54901,-9.71562 9.65305,-14.68292c14.48978,-23.18365 28.97203,-46.2318 44.25902,-68.90235c5.21784,-7.73803 10.16381,-15.77414 15.70291,-23.28416c10.66929,-14.46564 22.51629,-28.40727 34.0236,-42.21701c17.57009,-21.0841 35.06587,-42.23291 52.73412,-63.23479c8.96639,-10.65816 17.87183,-21.3757 26.82082,-32.05588c-10.10791,10.36845 -20.18492,20.76526 -29.94596,31.45592c-18.59342,20.36422 -37.67585,40.38439 -55.77564,61.18752c-3.26304,3.75001 -6.52607,7.50002 -9.78911,11.25003c-7.56033,9.34018 -15.12065,18.68037 -22.68098,28.02056c-16.95002,20.94039 -32.69011,42.63827 -48.53692,64.42281c-9.54422,14.03752 -19.12199,28.03771 -28.52498,42.15625c-0.00769,0.3125 -0.01585,0.62426 -0.02457,0.93523c-0.08832,3.15159 0.41877,6.44973 -0.54897,9.47861c3.61212,0.00639 7.08465,0.68908 10.62763,1.39515c0.92957,0.18525 1.85012,0.78927 2.77289,0.76263c-1.06186,-0.04807 -1.90801,-0.92419 -1.90801,-1.99792c0,-0.18297 0.02457,-0.3602 0.07059,-0.52858l0.95927,-3.83706l0.11098,0.02774zM63.06505,304.23331c9.56579,-14.41694 19.13943,-28.82029 28.95435,-43.07524c0.38912,-0.69432 0.7781,-1.38869 1.16696,-2.08315c13.41667,-23.96099 27.06873,-47.79151 40.62992,-71.671c5.97659,-10.524 11.87046,-21.10209 17.68697,-31.72378c-2.93017,3.4863 -5.84853,6.98476 -8.75661,10.4962c-13.85721,22.82681 -28.16325,45.32415 -42.58379,67.80323c-8.55791,13.34027 -17.95473,26.07136 -27.20427,38.93963c-1.19315,1.65994 -2.3828,3.35861 -3.58626,5.06563c-1.14075,3.95626 -2.19635,7.9527 -3.1824,12.03776c-0.90548,3.7513 -2.23261,7.6613 -2.7801,11.47957c-0.12949,0.90306 -0.24374,1.81394 -0.34477,2.73114zM73.05194,266.22854c8.26919,-11.2184 16.24252,-22.71508 23.74414,-34.40878c9.04111,-14.09349 18.03722,-28.19407 26.90565,-42.37875c-13.79535,16.92163 -27.57132,33.85742 -41.25028,50.87401c-0.15362,0.27443 -0.30708,0.54892 -0.46039,0.82351c-2.2187,6.22021 -4.41277,12.44881 -6.67288,18.64202c-0.78717,2.15702 -1.54174,4.30372 -2.26624,6.44799zM90.32875,218.63542c1.28792,-2.17673 2.5838,-4.34949 3.88693,-6.51875c14.28999,-23.78785 29.18064,-47.05421 44.40562,-70.25018c-5.78685,7.19833 -11.53336,14.43295 -17.23338,21.71631c-5.65821,7.22994 -11.31642,14.45987 -16.97463,21.68981c-4.72217,11.04736 -9.63286,22.04848 -14.02873,33.22092c-0.01861,0.04729 -0.03721,0.09459 -0.05581,0.1419zM77.76212,129.38139c2.99675,-4.42691 5.96681,-8.87246 9.10968,-13.19378c5.49313,-7.55284 11.40944,-14.83389 17.10411,-22.23653c2.90134,-3.77152 5.90237,-7.4612 8.94322,-11.12172c0.93427,-1.12466 1.54239,-2.65876 2.79926,-3.38732c4.01587,-5.29714 8.03879,-10.58971 12.06548,-15.88084c16.93655,-22.25479 35.04145,-43.91945 53.54455,-64.88963c12.00602,-13.60682 24.05483,-27.15658 36.28219,-40.56491c0.34859,-0.38226 0.69649,-0.76374 1.04429,-1.14424c-2.49873,1.81589 -4.97222,3.65995 -7.37999,5.57855c-4.69502,3.74117 -8.86891,8.47273 -13.2137,12.62004c-20.11584,19.20147 -38.56555,40.25486 -57.55711,60.56767c-7.2298,7.73279 -14.24024,15.66835 -21.13824,23.70551c-0.34064,0.56567 -0.68129,1.13133 -1.02194,1.69699c-13.65732,22.6788 -27.22031,45.39762 -40.58181,68.25022zM150.9263,6.91264c12.37589,-13.71624 24.84199,-27.34158 37.47778,-40.83889c12.47179,-13.32214 25.00458,-26.57821 37.61937,-39.76471c-0.62483,0.45031 -1.25289,0.89608 -1.88539,1.33559c-7.44785,5.17541 -15.70277,9.41834 -22.90205,14.92772c-3.8559,2.95079 -7.27132,6.84596 -10.81071,10.1731c-4.75975,4.47431 -9.51139,8.95676 -14.25655,13.44583c-5.04939,7.48788 -9.94153,15.0743 -14.60315,22.90174c-3.53987,5.94388 -7.08689,11.8834 -10.6393,17.81963zM94.87789,65.82929c-5.09234,6.46724 -10.19764,12.92435 -15.29228,19.38967c-16.60929,22.14736 -33.08902,44.1443 -48.33997,67.25179c-2.52325,3.82311 -5.0332,7.65024 -7.52489,11.48574c1.60292,-2.04913 3.2129,-4.09129 4.82763,-6.12736c7.92194,-9.98853 15.82966,-19.98806 23.72863,-29.99449c3.35786,-4.98584 6.71222,-9.97483 10.07102,-14.96202c10.84317,-15.6812 21.68651,-31.36226 32.52986,-47.04333zM117.49274,40.20864c-1.36427,1.93943 -2.72186,3.8853 -4.07232,5.83827c-7.66947,11.09123 -15.33889,22.1825 -23.00834,33.27375c7.07869,-9.12252 14.14168,-18.2716 21.37071,-27.27668c0.11456,-0.25111 0.22897,-0.5023 0.34321,-0.75359c1.84577,-3.6959 3.63997,-7.37516 5.36674,-11.08175zM113.98862,88.35221c-11.19737,14.8051 -22.32909,29.65582 -33.3233,44.62016c-7.45089,10.14149 -14.87466,20.27597 -22.10754,30.53655c-7.33158,13.52669 -14.4798,27.15457 -21.70245,40.74514c9.03829,-10.1798 17.91252,-20.50148 26.83052,-30.79149c6.91023,-7.97334 13.83697,-15.93067 20.77895,-23.87429c9.47522,-18.99782 18.84986,-38.04265 27.74798,-57.32191c0.60046,-1.30093 1.19059,-2.60645 1.77584,-3.91416zM136.41358,113.81677c-3.91623,8.14037 -7.75179,16.34647 -11.51128,24.59204c14.95199,-18.19405 30.07074,-36.15873 45.71579,-53.80102c7.77008,-8.76202 15.53829,-17.51829 23.37518,-26.21469c3.54944,-5.12358 7.09896,-10.24712 10.64848,-15.37065c-3.93676,3.01864 -7.56719,6.62633 -11.30913,9.86921c-6.96418,6.03538 -13.76054,12.27496 -20.5426,18.52575c-4.74282,5.28473 -9.44672,10.6015 -14.06311,16.00606c-7.49675,8.77668 -14.94694,17.55398 -22.31334,26.39331zM186.66891,84.03594c-4.44887,5.03134 -8.83733,10.11415 -13.13752,15.27138c-3.43422,4.11868 -6.859,8.24125 -10.27312,12.37014c-6.92799,10.5253 -13.85186,21.0533 -20.76895,31.58581c-15.37824,23.41615 -30.4182,46.898 -44.84477,70.91322c-0.73279,1.21983 -1.46327,2.44079 -2.19133,3.66292c11.58868,-14.30433 23.22471,-28.5698 34.86158,-42.83629c3.04455,-3.73254 6.09871,-7.44967 9.16427,-11.1524c0.45812,-0.75492 0.91575,-1.5102 1.37287,-2.26585c14.25412,-23.56294 28.7084,-46.99379 42.21014,-70.99689c1.22477,-2.17736 2.42575,-4.36133 3.60684,-6.55203zM210.7921,133.43085c4.57223,-4.94323 9.13679,-9.89056 13.67248,-14.85823c18.88313,-20.68152 38.94696,-40.26454 58.13248,-60.66755c0.62506,-0.66473 1.24885,-1.33048 1.87145,-1.99719c0.92717,-1.63334 1.85598,-3.26865 2.79621,-4.90225c1.54465,-2.68377 3.18622,-5.22784 4.57495,-7.90087c-0.6208,0.56838 -1.26793,1.15194 -1.91074,1.79474c-2.48913,2.48913 -5.06588,4.91822 -7.48067,7.47984c-12.78469,13.56201 -25.0668,27.63864 -37.58846,41.44456c-11.69756,12.89553 -22.97713,26.17572 -34.0677,39.60695zM264.39039,87.66303c-10.28705,12.24123 -20.49622,24.55063 -30.78582,36.78167c-17.66425,20.99713 -35.15604,42.14116 -52.72214,63.22048c-11.45746,13.74798 -23.25525,27.62889 -33.87736,42.03057c-5.50549,7.46447 -10.41933,15.45499 -15.60558,23.1462c-12.57593,18.65004 -24.60565,37.55592 -36.54404,56.58265c9.18583,-11.65942 18.81673,-22.92919 28.3994,-34.29469c14.07716,-16.69617 28.36189,-33.20432 42.68871,-49.68222c3.57125,-4.99156 7.17123,-9.96219 10.81131,-14.90346c16.60147,-22.53586 33.26407,-45.00853 49.3751,-67.89823c12.85803,-18.26801 25.70402,-36.51837 38.26043,-54.98297zM207.29133,179.99931c9.14419,-9.46302 18.3944,-18.82766 27.5322,-28.28056c19.30544,-19.97115 37.34965,-41.15651 55.7657,-61.94881c1.99615,-2.25372 3.97942,-4.51735 5.95142,-6.78974c3.38229,-4.72391 6.76812,-9.44526 10.15897,-14.16297c16.01247,-22.27823 32.48373,-44.15327 49.0844,-65.99625c10.95769,-14.41801 21.60002,-29.12557 33.32973,-42.92524c2.5906,-3.04776 5.18058,-6.09604 7.77179,-9.14327c0.67736,-0.79657 3.7278,-4.54957 4.87183,-5.33824l2.82842,-2.82843v0c0.36193,-0.36193 0.86193,-0.58579 1.41422,-0.58579c1.10457,0 2,0.89543 2,2c0,0.33592 -0.08281,0.65249 -0.22914,0.93042l-1.19315,2.3863c-2.39502,4.77616 -5.489,8.99352 -8.51298,13.39197c-6.79534,9.88395 -13.27612,20.1137 -20.45943,29.71799c-9.57252,12.79871 -20.21123,24.9302 -30.27795,37.34612c-15.71623,19.39501 -31.29425,38.84058 -47.6427,57.68729c-12.76714,17.83193 -25.48411,35.70012 -38.23127,53.54614c-9.94781,13.92694 -19.79494,27.92188 -29.60551,41.9433c0.08272,-0.09373 0.16543,-0.18746 0.24814,-0.28119c18.23789,-20.6696 36.40064,-41.36008 54.16945,-62.43472c18.03246,-21.38733 35.85663,-42.93076 53.60891,-64.55108c7.05532,-8.59246 14.22627,-17.09296 21.40576,-25.58523c5.83351,-7.58653 11.75101,-15.11112 17.80721,-22.53821c10.13596,-12.43033 20.24475,-24.82751 30.84119,-36.86892c2.64013,-3.00015 5.22763,-6.06219 7.92754,-9.00856c1.029,-1.12293 1.73137,-2.76283 3.08461,-3.40511c10.46477,-17.43615 20.2497,-35.23962 30.19268,-53.03596c8.3851,-15.28869 16.61023,-30.4475 23.95499,-46.22001c-0.60589,0.6063 -1.23699,1.22669 -1.86032,1.90414c-2.58994,2.81476 -5.14663,5.66599 -7.77264,8.44715c-12.81761,13.57489 -25.97962,26.65863 -38.08103,40.88838c-17.93575,21.09023 -35.87296,42.17921 -53.80345,63.27391c-18.13373,21.3338 -35.71528,43.05457 -53.24405,64.88729c-17.5272,21.83077 -34.90245,43.75823 -52.10174,65.84831c-16.99019,21.82152 -34.10671,43.54406 -51.19307,65.29033c-3.25436,4.14191 -6.50128,8.28815 -9.74073,12.43929zM321.56744,108.6731c-4.97668,5.78064 -10.01411,11.50968 -15.14284,17.16174c-18.6144,20.51382 -37.26022,40.96274 -56.28017,61.10151c-1.0468,1.10837 -2.09255,2.21792 -3.1375,3.32836c-4.90242,6.74121 -9.80446,13.48269 -14.7071,20.22373c-16.43514,22.59803 -31.81638,45.73003 -47.1333,69.09815c-15.34948,23.4178 -30.69897,46.8356 -46.04845,70.2534c-2.46815,3.76551 -4.63582,7.70494 -6.67515,11.71722c2.68192,-2.93676 5.33817,-5.89808 7.96891,-8.8959c14.31683,-16.31453 28.64551,-32.61566 43.03975,-48.86048c12.34009,-17.90505 24.78665,-35.7006 37.80648,-53.14789c12.39228,-16.60634 24.78122,-33.21517 37.17461,-49.82068c6.19412,-8.77648 12.38715,-17.55372 18.58117,-26.33027c2.84512,-4.03136 5.65849,-8.09309 8.47332,-12.15613c10.56979,-15.72621 21.14119,-31.45135 31.71118,-47.17743c1.4556,-2.16565 2.91214,-4.33065 4.36911,-6.49533zM164.76757,331.00414c-7.12373,8.0917 -14.23794,16.19196 -21.34924,24.29553c-5.53178,6.30366 -11.20056,12.44023 -16.9416,18.53869c-0.41656,0.86399 -0.83519,1.72665 -1.25755,2.58701c-7.16578,14.59697 -14.32361,29.19655 -21.57925,43.74888c7.18625,-10.53895 14.38971,-21.06628 21.60812,-31.58452c13.17318,-19.1952 26.34635,-38.39039 39.51953,-57.58559zM85.7893,455.97567c-1.84646,3.80881 -3.66487,7.63096 -5.44156,11.47341c1.46268,-1.96308 2.92537,-3.92615 4.38805,-5.88923c11.07699,-14.86649 22.13626,-29.74429 33.33609,-44.51853c0.72516,-0.95659 1.44843,-1.91542 2.17018,-2.87612c-0.84721,0.94135 -1.69442,1.88268 -2.54163,2.82403c-7.98201,8.8689 -16.28847,17.46008 -23.29173,27.12609c-2.8671,3.95721 -5.74188,7.90956 -8.61939,11.86035zM244.63605,270.57098c4.45081,-4.97001 8.90365,-9.9382 13.3596,-14.90359c12.44142,-13.86381 24.90894,-27.69376 37.22122,-41.66362c3.9241,-7.49132 7.86911,-14.96922 11.73808,-22.47411c9.50739,-18.44206 18.79479,-36.97002 28.51904,-55.28179c-8.29363,10.65902 -16.53373,21.35974 -24.68799,32.13506c-16.89378,22.32402 -33.80966,44.62925 -50.54151,67.07496c-16.73051,22.44392 -33.44732,44.86892 -49.70086,67.66121c-3.87797,5.43806 -7.74541,10.87547 -11.64334,16.28828c8.88004,-9.7792 17.84047,-19.48517 26.96178,-29.06255c6.26829,-6.5817 12.52502,-13.17413 18.77398,-19.77385zM159.03034,361.653c1.55349,-4.37378 3.03967,-8.88701 4.62358,-13.36809c-0.36558,-0.36241 -0.592,-0.86496 -0.592,-1.4204c0,-0.3119 0.0714,-0.60712 0.19874,-0.87023l1.63207,-3.57128c0.49766,-1.21862 0.99532,-2.43725 1.49298,-3.65587c3.05298,-7.43313 8.0786,-14.08881 12.27736,-20.93941c0.00361,-0.0059 0.00724,-0.01181 0.01085,-0.01771c-0.86565,1.26107 -1.73128,2.52242 -2.59705,3.78397c-15.84359,23.08637 -31.68718,46.17275 -47.53077,69.25912c-7.626,11.11216 -15.2353,22.23445 -22.82525,33.36989c2.99065,-3.31121 6.02008,-6.5915 9.0064,-9.90963c10.6216,-11.80177 21.24319,-23.60354 31.86478,-35.40531c2.5524,-3.28548 5.13921,-6.53844 7.77536,-9.74331c1.50511,-1.82983 3.05632,-3.62791 4.63261,-5.40771v-1.75702h0.10378zM374.85714,23.02639c1.98834,-3.97134 3.94716,-7.95722 5.94109,-11.92576c-0.60336,0.75418 -1.21606,1.50361 -1.84191,2.24802c-4.79874,5.70783 -9.61998,11.39873 -14.43507,17.09508c-8.80451,11.44799 -17.41652,23.03791 -26.02524,34.64672c9.35719,-10.84773 18.73512,-21.67748 28.16893,-32.45898c2.77492,-3.17134 5.50304,-6.37454 8.1922,-9.60507zM286.75119,123.85709c6.07814,-6.55997 12.13425,-13.13798 18.07578,-19.81374c3.45175,-4.72947 6.90841,-9.45531 10.3734,-14.17501c-8.5876,10.34475 -17.20817,20.66223 -25.87683,30.94366c-0.85655,1.01591 -1.71402,2.03092 -2.57236,3.04509zM276.34621,190.23238c-5.46033,7.98844 -10.98848,15.9259 -16.59259,23.79551c-3.69196,5.18445 -7.39579,10.35999 -11.09645,15.53731c0.63245,-0.73493 1.26467,-1.47009 1.89666,-2.2055c18.26819,-21.25753 35.98755,-42.73195 53.24196,-64.82082c17.23343,-22.06202 34.41854,-44.14681 51.36262,-66.43201c2.78811,-3.66697 5.63853,-7.30322 8.47293,-10.95305c7.29867,-13.11321 14.61674,-26.21555 21.98583,-39.28973c1.84454,-3.27257 3.69313,-6.54055 5.53739,-9.80936c-8.89715,11.93601 -17.81643,23.85543 -26.81666,35.71287c-16.9287,22.3029 -33.8574,44.60579 -50.7861,66.90868c-12.80267,16.86701 -24.98628,34.23664 -37.20559,51.55612zM431.59866,-12.78077c-7.89141,14.57171 -16.11827,28.68095 -25.2557,42.50424c-9.55338,14.45255 -18.69903,29.29721 -28.71181,43.43384c-3.41291,4.81854 -7.01683,9.52148 -10.649,14.20104c-1.47674,2.65332 -2.95269,5.30707 -4.42812,7.96113c8.01201,-9.98852 16.28361,-19.86414 23.80295,-30.19638c7.809,-10.73025 14.82789,-22.14343 22.21337,-33.17127c15.2067,-22.70631 30.25318,-45.37978 42.93812,-69.59648c1.8546,-3.53936 3.56458,-7.15299 5.24547,-10.78028c-0.09699,0.09926 -0.19401,0.19989 -0.29093,0.30205c-2.7117,2.85833 -5.63191,5.62969 -8.18828,8.62698c-5.62441,6.5945 -10.99514,13.5014 -16.25326,20.50538c0.48924,0.36459 0.80608,0.94764 0.80608,1.6047c0,0.20353 -0.0304,0.39997 -0.08691,0.58501l-1.06887,3.80672l-0.06391,-0.01794zM347.11565,114.87321c1.10957,-1.99761 2.21904,-3.99527 3.32851,-5.99291c-14.3866,18.79475 -28.92407,37.466 -43.4961,56.12093c-17.29262,22.13779 -35.05192,43.66096 -53.36055,64.96554c-9.30078,10.82273 -18.65113,21.59261 -28.05063,32.31979c-4.68021,6.76213 -9.30236,13.56468 -13.83398,20.43077c-10.16753,15.40535 -20.21172,30.85621 -30.99625,45.83756c-3.61163,5.01711 -6.8603,10.16356 -10.89389,14.65368c-1.80552,4.67361 -3.40222,9.47484 -5.05615,14.18613c0.90392,-0.98778 1.80776,-1.9749 2.70781,-2.96373c2.23048,-2.86776 4.46096,-5.73552 6.69144,-8.60328c11.45801,-14.73172 22.29576,-29.83675 33.13102,-45.03099c16.26987,-22.81519 33.00326,-45.26294 49.75058,-67.7294c16.73762,-22.45344 33.65929,-44.76639 50.5589,-67.09809c12.99876,-17.177 26.21535,-34.16472 39.51929,-51.09597zM184.04132,316.8993c7.19619,-10.37084 14.12814,-20.91248 21.07512,-31.45829c-1.54309,1.73872 -3.08748,3.47649 -4.63316,5.21337c-5.13737,7.78726 -10.12902,15.66642 -14.89003,23.68496c-0.50708,0.85404 -1.02576,1.70707 -1.55193,2.55996zM325.21909,115.95768c-1.09329,1.68833 -2.18901,3.37512 -3.28625,5.06091c5.71884,-7.53435 11.43768,-15.0687 17.15653,-22.60305c-2.92027,3.6985 -5.83835,7.39874 -8.75365,11.10116c-1.69511,2.15278 -3.40326,4.29814 -5.11663,6.44098zM123.13523,371.56013c3.91732,-8.13532 7.68777,-16.36149 12.63745,-23.91292c15.34948,-23.4178 30.69897,-46.8356 46.04845,-70.2534c14.12259,-21.54601 28.30099,-42.89186 43.30504,-63.80502c-10.8555,11.51609 -21.81806,22.92865 -33.17344,33.93993c-6.31115,6.1199 -12.62231,12.23981 -18.93346,18.35972c-2.35762,3.44451 -4.71356,6.89031 -7.06819,10.33721c-4.91517,7.19065 -9.20341,14.86987 -13.73806,22.30668c-4.12431,6.76387 -8.692,13.41919 -12.44032,20.3964c-5.00379,9.31417 -9.04549,19.30085 -13.53473,28.87629c-3.75806,8.01409 -7.091,15.82616 -9.08806,24.43983c-0.20178,0.87032 -0.4107,4.53199 -0.92361,6.72385c0.3965,-0.48587 0.81276,-0.96081 1.07278,-1.248c1.78983,-1.97677 3.66797,-3.87175 5.50195,-5.80762c0.11144,-0.11763 0.22284,-0.23528 0.3342,-0.35295zM338.64512,32.14025c1.85733,-2.29539 3.7151,-4.59116 5.57482,-6.88619c10.03388,-12.3754 20.64096,-24.46629 30.18217,-37.22313c5.97204,-7.98477 11.45504,-16.40571 17.04087,-24.69653c-11.3993,13.49765 -21.785,27.84202 -32.47432,41.90692c-6.80384,8.95242 -13.58595,17.91018 -20.32355,26.89894zM78.61296,238.70587c2.59501,-7.26335 5.23029,-14.51204 8.04935,-21.67688c2.55698,-6.49876 5.28736,-12.93975 8.05378,-19.36552c-1.79207,2.28986 -3.58414,4.57973 -5.3762,6.8696c-6.52258,8.3344 -13.49373,16.4775 -19.41152,25.25191c-15.64127,23.17578 -31.26622,46.32807 -46.3637,69.86238c-6.23383,9.71744 -13.20311,19.26169 -18.82606,29.34123c-2.41154,4.32285 -4.31798,8.92917 -6.62964,13.30805c8.88223,-12.16868 18.0121,-24.132 27.17054,-36.10841c17.02439,-22.26266 34.55246,-44.09252 52.09888,-65.94532c0.41144,-0.51242 0.82297,-1.02476 1.23459,-1.53703zM171.86171,91.33813c1.80164,-2.7349 3.60348,-5.46968 5.40547,-8.20436c-1.21818,1.37651 -2.43676,2.75268 -3.65634,4.12796c-18.32763,20.66733 -35.92992,41.77805 -53.39132,63.18135c-0.56719,0.72275 -1.13482,1.44512 -1.7028,2.16718c-1.46907,3.31178 -2.92638,6.62746 -4.37225,9.94537c9.13043,-11.99643 18.40263,-23.87912 28.05105,-35.49604c9.88917,-11.90678 19.77728,-23.81446 29.66619,-35.72146zM104.02296,175.95476c1.54742,-3.63883 3.10807,-7.27796 4.6823,-10.91522c-13.48765,17.06968 -26.91088,34.16862 -39.18775,52.14426c-9.46091,13.85253 -18.8892,27.72795 -28.41294,41.53737c-5.86129,8.49888 -12.18353,16.83186 -17.40204,25.74106c-1.0049,1.71423 -2.01014,3.42827 -3.01552,5.14222c6.86024,-9.69601 13.79936,-19.33387 20.75111,-28.97153c16.2396,-22.51399 32.70605,-44.82516 49.36188,-67.03292c4.41272,-5.88363 8.81135,-11.77124 13.22296,-17.64524zM107.32139,133.67637c11.79742,-14.40484 23.66268,-28.69712 35.83733,-42.76847c0.69757,-1.42188 1.39512,-2.84376 2.09268,-4.26565c-7.86787,8.9077 -15.73819,17.81324 -23.61005,26.71747c-7.29873,8.25594 -14.58312,16.52274 -21.85171,24.80303c-2.02084,2.98656 -4.04169,5.97311 -6.06253,8.95967c-1.87403,2.76958 -3.74806,5.53916 -5.62209,8.30874c4.88406,-5.65616 9.94092,-11.18135 14.86653,-16.79108c1.44939,-1.65069 2.89897,-3.30586 4.34984,-4.96371zM71.01553,185.06544c-3.69878,7.07725 -7.47567,14.10014 -11.3432,21.09175c14.16479,-19.19505 28.58796,-38.17672 43.17879,-57.05896c9.8285,-12.71923 19.92005,-25.15243 30.17466,-37.46398c0.31888,-0.66227 0.6383,-1.3241 0.95825,-1.98548c-8.019,8.7593 -15.83072,17.72258 -23.60552,26.60779c-2.18954,2.67355 -4.37674,5.35099 -6.56319,8.03161c-11.03095,13.52415 -21.95569,27.11643 -32.79977,40.77727zM151.92294,73.04411c3.20073,-6.52299 6.40217,-13.04561 9.60532,-19.5674c1.68885,-3.43859 2.97288,-6.90751 4.29305,-10.49119c-9.03817,11.02947 -16.96696,22.6658 -25.01975,34.5668c-7.78271,11.50187 -15.56543,23.00374 -23.34815,34.50561c0.397,-0.44922 0.79404,-0.89842 1.19112,-1.34758c11.09671,-12.55201 22.19038,-25.10662 33.2784,-37.66625zM21.57295,221.16948c1.66718,-1.83115 3.33446,-3.66222 5.00171,-5.4933c1.78185,-3.74777 3.6402,-7.45774 5.58951,-11.12008c1.25057,-2.34955 2.49851,-4.70041 3.74515,-7.0519c-0.92121,1.48623 -1.8353,2.9777 -2.74182,4.47474c-3.85053,6.35869 -7.86125,12.71061 -11.59454,19.19054zM100.44792,75.6493c1.26375,-2.51053 2.51344,-5.02873 3.74837,-7.5552c-6.87353,8.80603 -13.67604,17.66756 -20.57328,26.42892c-9.36432,11.89521 -18.73185,23.78754 -28.11172,35.67016c-0.00778,0.01155 -0.01556,0.0231 -0.02334,0.03465c8.97303,-11.24924 18.03345,-22.42712 27.30664,-33.4433c5.90838,-7.01891 11.76977,-14.08578 17.65332,-21.13524zM48.03127,24.14231c-5.76713,0.95025 -10.57971,6.3822 -14.55116,10.29598c-8.59786,8.47301 -15.75483,18.27865 -23.76317,27.30537c0.70537,-0.69521 1.41048,-1.38371 2.12104,-2.05192c12.32461,-11.59007 24.23964,-23.58073 36.1933,-35.54943zM6.58274,44.11424c7.48923,-8.93526 14.97208,-17.98924 22.95884,-26.48281c4.55232,-4.84119 9.95745,-8.78353 14.20755,-13.86783c0.1129,-0.13452 0.22532,-0.26944 0.3373,-0.40473c-1.57615,0.92993 -3.21041,1.7949 -4.63341,2.74284c-4.05223,2.69941 -7.70691,5.96358 -11.47401,9.04507c-11.49421,9.40225 -21.75008,20.60066 -31.28482,31.9435l-0.07432,0.03582l0.02101,0.02062l-2.21272,2.25344c-0.36297,0.37018 -0.86874,0.59985 -1.42814,0.59985c-1.10457,0 -2,-0.89543 -2,-2c0,-0.46928 0.16163,-0.9008 0.43224,-1.24195l2.44482,-3.14334c0.10783,-0.20984 0.21989,-0.41846 0.33592,-0.62591c-0.06998,0.00741 -0.14104,0.0112 -0.21298,0.0112c-1.10457,0 -2,-0.89543 -2,-2c0,-0.4918 0.17751,-0.94215 0.47196,-1.29046l2.55234,-3.0628c2.77028,-5.03565 8.30254,-9.64982 12.13834,-13.96511c4.09988,-4.61238 8.27553,-9.56975 11.95579,-14.72535c-1.2321,0.98918 -2.48049,1.94097 -3.63416,2.90414c-3.86354,3.22557 -7.47119,6.66018 -11.40088,9.82073l-0.23082,0.02395l0.04187,0.08375l-2,1l-0.41857,-0.83715l-2.09834,0.21771c0.33631,-0.59938 0.65195,-1.21186 0.96752,-1.82438l-0.75925,-0.75925l2.82843,-2.82843c2.09084,-2.93763 5.53481,-5.18037 7.90761,-7.90113c0.01787,-0.02049 0.56878,-0.84864 1.3133,-1.86047c-1.13972,0.80074 -2.29778,1.57822 -3.32472,2.51515c-0.73628,0.67174 -1.46767,1.35064 -2.20571,2.02188c-0.38575,0.38199 -0.78294,0.74211 -1.19571,1.07173c-0.85065,0.74865 -1.71789,1.47716 -2.61868,2.16379l-2.88637,2.65768c-0.35677,0.33066 -0.83436,0.53279 -1.35915,0.53279c-1.10457,0 -2,-0.89543 -2,-2c0,-0.06615 0.00321,-0.13156 0.00949,-0.19606c-0.20257,0.20276 -0.40428,0.40437 -0.60515,0.60451l-0.18376,0.05862l0.03615,0.0528l-1.31441,0.89998c-0.04197,0.11274 -0.08208,0.2257 -0.12022,0.3389c-2.50802,7.44283 -3.80604,15.48426 -6.10503,23.04283c-1.21803,4.00457 -0.7512,8.30744 -1.3476,12.48227c-0.13809,0.96662 -0.20016,1.9476 -0.41925,2.89914c-0.11641,0.50558 -1.02443,1.1751 -0.58075,1.44401c1.60375,0.97203 3.5239,-1.32563 5.15947,-2.24312c3.0116,-1.62163 6.50813,-3.02767 9.30639,-4.9997c2.2952,-1.6175 4.51737,-3.39054 6.70266,-5.22872zM5.7788,53.96204c-0.20361,0.24025 -0.40745,0.48028 -0.61158,0.72007c1.75226,-1.31476 3.50534,-2.62871 5.26454,-3.93456c4.81603,-4.82773 9.7393,-9.52434 14.67609,-14.20868c1.76452,-2.047 3.5741,-4.03905 5.45457,-5.92931c0.15765,-0.15847 0.31579,-0.31646 0.47439,-0.47396c2.37777,-2.61712 4.77444,-5.21485 7.20631,-7.77297c-5.00518,4.21236 -9.97139,8.47599 -14.96746,12.68801c-5.14076,5.95546 -10.29061,11.90734 -15.86186,17.36401c-0.53651,0.52548 -1.08252,1.04012 -1.63499,1.5474zM136.89242,22.54188c7.09795,-11.82028 14.18141,-23.64925 21.23648,-35.49558c1.29234,-2.16999 2.60322,-4.32224 3.93073,-6.45949c-0.15634,0.20863 -0.31273,0.41724 -0.46917,0.62581c-11.08355,14.30206 -22.05038,28.58128 -32.70123,43.12938c0.07176,0.20607 0.11077,0.42749 0.11077,0.65801c0,0.42026 -0.12963,0.81025 -0.35107,1.13216l-1.89772,2.84657c-1.34858,3.41016 -2.78623,6.75035 -4.28884,10.05609c3.07307,-3.64832 6.18961,-7.25786 9.36247,-10.81657c1.6882,-1.8935 3.37732,-3.78565 5.06758,-5.67636zM29.82272,218.16444c-5.06246,10.72875 -9.4979,21.76409 -13.66202,32.87051c3.82542,-5.18087 7.66319,-10.35228 11.50943,-15.51747c6.16433,-8.82157 12.46047,-17.54404 19.03818,-26.04484c9.97905,-14.74777 19.95809,-29.49554 29.93714,-44.24331c0.23118,-0.46192 0.46236,-0.92382 0.69354,-1.38574c-3.54768,4.07558 -7.0912,8.15505 -10.63038,12.23872c-10.97299,12.66115 -21.82817,25.42987 -33.10814,37.8188c-1.27649,1.40199 -2.52809,2.83211 -3.77775,4.26333zM155.28405,75.28082c-0.66234,1.34972 -1.32469,2.69945 -1.98703,4.04917c0.54091,-0.60994 1.08253,-1.2194 1.6249,-1.82837c18.51932,-20.79362 37.07208,-41.41158 56.40952,-61.4484c11.1099,-11.51171 21.95964,-23.36371 33.37033,-34.57622c8.56115,-8.41247 17.59456,-16.39589 26.37621,-24.57879c13.96706,-13.01475 27.53393,-26.35109 41.03634,-39.84144c-0.64797,0.45525 -1.2896,0.91753 -1.92329,1.38845c-5.28569,3.92803 -10.18683,8.54436 -15.23479,12.7762c-21.41762,17.95186 -41.26656,37.72396 -61.20788,57.26841c-19.97755,19.57997 -38.01138,40.9224 -56.50619,61.90152c-7.31638,8.29915 -14.636,16.59542 -21.95811,24.88948zM164.10033,140.85446c-8.75561,16.27591 -17.68445,32.46326 -26.8058,48.52478c-6.85712,12.0745 -13.73751,24.13648 -20.59892,36.20914c9.11688,-13.14639 18.25209,-26.28038 27.50477,-39.32844c10.77762,-15.19834 20.99613,-31.05829 32.44711,-45.75263c5.73463,-7.3589 12.18561,-14.26288 18.24736,-21.35643c18.15286,-21.24272 36.20464,-42.559 54.13377,-63.99092c5.74628,-6.86893 11.29613,-14.00614 17.1841,-20.78112c-6.98217,6.54518 -13.91105,13.14937 -20.68195,19.92481c-19.78913,19.80241 -39.66903,39.38299 -58.35114,60.23744c-7.80176,8.70894 -15.48632,17.47533 -23.07928,26.31337zM410.11771,1.24221c0.72262,-1.41231 1.43923,-2.8282 2.14917,-4.24809c1.03674,-2.07347 2.06481,-4.15194 3.09563,-6.2291c-1.39411,1.69661 -2.75194,3.41881 -4.03134,5.19239c-16.1945,22.42316 -32.91076,44.4313 -50.5637,65.72664c-2.95062,3.55943 -5.89353,7.12479 -8.83553,10.69046c-0.41972,0.73327 -0.83827,1.46694 -1.25542,2.20109c-1.97873,3.48238 -3.9973,6.94177 -6.04824,10.38236c11.55574,-14.60442 23.13699,-29.18865 34.70867,-43.78052c8.2792,-10.44004 16.36122,-21.01104 24.40715,-31.63167c2.09663,-2.76754 4.20139,-5.56232 6.37361,-8.30355zM273.05655,187.95711c0.08002,-0.11707 0.16003,-0.23417 0.24003,-0.35127c-3.91417,5.24813 -7.82899,10.49579 -11.74424,15.74312c-3.65116,5.17331 -7.30269,10.34635 -10.95505,15.51882c3.65729,-4.72011 7.24737,-9.49075 10.71898,-14.35031c3.93129,-5.50302 7.83763,-11.02911 11.74027,-16.56036zM386.64553,8.41706c2.0478,-2.61023 4.07853,-5.23332 6.0961,-7.86703c5.13217,-7.9182 10.26435,-15.83641 15.39652,-23.75462c-5.04424,5.80571 -9.95994,11.71362 -14.83414,17.65807l-1.1638,3.5714l-0.05453,-0.01777l-0.00947,0.18758c-0.66156,1.22675 -1.32311,2.4535 -1.98467,3.68025c-1.1746,2.16789 -2.31958,4.35043 -3.44602,6.54213zM164.8904,268.19917c1.68512,-1.63406 3.37025,-3.26812 5.05537,-4.90218c1.55835,-2.27661 3.11744,-4.55267 4.67735,-6.82811c-0.92597,1.10618 -1.84956,2.21499 -2.77065,3.32664c-2.32088,2.80106 -4.64135,5.60246 -6.96207,8.40365zM469.79325,106.41918c-0.65935,1.38452 -1.31747,2.76689 -1.9731,4.14717c-6.09044,12.82197 -12.10817,25.67609 -18.09044,38.54684c5.11728,-8.98674 10.22203,-17.99193 15.62463,-26.79178c3.16844,-5.16081 6.45713,-10.25631 9.78311,-15.32931c1.26123,-2.33957 2.52746,-4.67419 3.80129,-7.00187c7.81252,-14.27586 15.1738,-28.92808 22.26156,-43.61296c-7.91082,12.94158 -15.46294,26.11326 -23.88575,38.75763c-2.50655,3.76198 -5.01424,7.523 -7.5213,11.28429zM449.38481,329.05203c2.25236,-7.25374 4.46557,-14.52001 6.65502,-21.79376c-1.53785,2.90426 -3.11554,5.79279 -4.66156,8.69272c-3.64614,8.28276 -7.01839,16.66088 -10.02557,25.21074c0.64229,-1.08576 1.29424,-2.16276 1.95625,-3.22956c1.8861,-3.0394 3.94635,-5.98001 6.07587,-8.88013zM456.76544,243.10761c3.20477,-8.63093 6.09162,-17.38537 8.84118,-26.15515c-1.08548,2.24506 -2.16283,4.49102 -3.21963,6.74145c-8.79708,18.73326 -17.59416,37.46652 -26.39124,56.19978c0.82673,-1.13407 1.68573,-2.23912 2.58528,-3.30578l-0.38698,-0.23956l2.08693,-3.3712c0.24641,-0.41323 0.63759,-0.73011 1.10354,-0.88066c0.95761,-1.88641 1.91884,-3.77099 2.88423,-5.6535c4.04464,-7.88705 8.20776,-15.64469 12.49667,-23.33538zM431.44958,62.75744c1.68109,-4.04442 3.35262,-8.09404 4.97316,-12.15911c-5.72395,9.62031 -11.33019,19.29801 -16.87441,29.01554c4.08638,-5.55241 8.09861,-11.15056 11.90125,-16.85642zM434.28341,363.21265c-0.00045,0.00193 -0.00089,0.00385 -0.00133,0.00579c0.24813,-0.52036 0.49626,-1.04073 0.7444,-1.56108c-0.24919,0.51829 -0.49687,1.03677 -0.74307,1.5553zM256.85059,306.33456c0.11019,-0.1671 0.22045,-0.33417 0.33078,-0.50119c-0.02303,-0.05018 -0.04405,-0.10149 -0.06295,-0.1538c-0.08943,0.21828 -0.17871,0.43661 -0.26783,0.65499zM197.36121,60.55628c-0.24417,0.35245 -0.48834,0.7049 -0.73251,1.05734c1.03588,-1.11773 2.07025,-2.23753 3.10341,-3.35905c0.10887,-0.22514 0.21769,-0.45035 0.32647,-0.67563c-0.90082,0.99092 -1.79986,1.98344 -2.69737,2.97733zM69.3031,264.828c-3.08347,6.02744 -6.07639,12.10491 -8.96536,18.2411c1.82757,-2.39873 3.65511,-4.79746 5.48277,-7.19612c1.08207,-3.70021 2.23896,-7.36953 3.4826,-11.04498zM156.31803,143.79785c1.48517,-1.74319 2.97367,-3.4835 4.46569,-5.22104c3.45251,-6.42045 6.87802,-12.85466 10.2777,-19.30036c-4.86784,8.20113 -9.79819,16.36521 -14.74339,24.5214zM275.84312,183.86736c3.18481,-4.68898 6.34677,-9.3945 9.48748,-14.11316c-3.1623,4.70451 -6.32477,9.40892 -9.48748,14.11316zM125.19164,42.00294c-3.37173,4.00945 -6.69129,8.06546 -9.97582,12.15191c-1.34322,2.94026 -2.70783,5.86801 -4.09275,8.78418c1.65644,-1.95488 3.31785,-3.90534 4.98573,-5.84996c3.02814,-5.02845 6.05611,-10.05693 9.08284,-15.08613zM241.20358,19.04606c-1.5323,1.61933 -3.0592,3.24456 -4.58164,4.87456c1.52471,-1.62723 3.05203,-3.25199 4.58164,-4.87456zM67.26364,313.4417c5.87121,-8.70096 11.78568,-17.37428 17.69471,-26.05634c-3.85319,5.02594 -7.70638,10.05189 -11.55957,15.07783c-2.04926,3.65722 -4.09497,7.31637 -6.13514,10.9785z" fill="#d9f9ff" stroke="none" stroke-width="0.5"/><path d="M36,45c0,-1.10457 0.89543,-2 2,-2c1.10457,0 2,0.89543 2,2c0,1.10457 -0.89543,2 -2,2c-1.10457,0 -2,-0.89543 -2,-2z" fill="#c7f7ff" stroke="none" stroke-width="0.5"/></g></g></svg>